<?xml version="1.0" encoding="utf-8"?>
<svg version="1.2" width="916" height="916" baseProfile="tiny-ps" xmlns="http://www.w3.org/2000/svg">
  <title>CCH-LOBO</title>
  <path d="M0 0 C302.28 0 604.56 0 916 0 C916 302.28 916 604.56 916 916 C613.72 916 311.44 916 0 916 C0 613.72 0 311.44 0 0 Z " fill="#FEFEFE" transform="translate(0,0)" />
  <path d="M0 0 C15.51 0 31.02 0 47 0 C47 70.29 47 140.58 47 213 C31.49 213 15.98 213 0 213 C0 182.97 0 152.94 0 122 C-33.66 122 -67.32 122 -102 122 C-102 152.03 -102 182.06 -102 213 C-116.85 213 -131.7 213 -147 213 C-147.18066809 193.95445664 -147.32800086 174.90960822 -147.41449738 155.86342525 C-147.45572875 147.01972184 -147.51192908 138.17658906 -147.60351562 129.33325195 C-147.68331551 121.62431868 -147.73488017 113.9157987 -147.75270796 106.20646387 C-147.76312782 102.12509241 -147.78756928 98.04490313 -147.84584045 93.96391106 C-147.9002834 90.11975736 -147.91686585 86.27726858 -147.90486145 82.43276596 C-147.90705625 81.02462642 -147.92289108 79.61642929 -147.9536438 78.20862389 C-148.17437718 67.57940129 -148.17437718 67.57940129 -145.28593445 63.69478035 C-143.27541226 61.92953254 -141.21936438 60.48706522 -139 59 C-137.75759241 57.79868402 -136.53979205 56.57087435 -135.359375 55.30859375 C-134.76938721 54.68057861 -134.17939941 54.05256348 -133.5715332 53.40551758 C-132.97042725 52.75607178 -132.36932129 52.10662598 -131.75 51.4375 C-131.10957764 50.75002686 -130.46915527 50.06255371 -129.80932617 49.35424805 C-116.58141726 35.66075516 -116.58141726 35.66075516 -105.75 20.1875 C-105.1725 19.135625 -104.595 18.08375 -104 17 C-103.34 17 -102.68 17 -102 17 C-102 37.79 -102 58.58 -102 80 C-68.34 80 -34.68 80 0 80 C0 53.6 0 27.2 0 0 Z " fill="#091922" transform="translate(748,370)" />
  <path d="M0 0 C0.69673828 0.21962402 1.39347656 0.43924805 2.11132812 0.66552734 C20.78567506 6.7342606 39.56081542 17.4124362 52 33 C52.37280451 34.32284001 52.71239996 35.65605986 53 37 C45.54342406 43.43333778 38.07510025 49.83543391 30.40625 56.015625 C28.21870262 57.81964135 26.14447281 59.70182173 24.0625 61.625 C21 64 21 64 19.11328125 63.93359375 C16.17693705 62.63639179 14.39731528 60.69945518 12.125 58.4375 C-2.33318407 44.75064908 -20.2835048 39.56400006 -40.0390625 39.796875 C-55.47363193 40.58839138 -70.68658333 46.55183291 -81.82421875 57.46484375 C-96.9835283 75.1280249 -100.67313739 96.47668871 -99 119 C-97.8701976 127.44077009 -95.663361 135.74997222 -91.734375 143.3359375 C-91 145 -91 145 -91 148 C-90.34 148 -89.68 148 -89 148 C-87.58984375 149.6875 -87.58984375 149.6875 -85.9375 152 C-76.8569843 163.87165782 -64.56389858 171.65309795 -49.81640625 174.56640625 C-28.75342686 176.95943666 -9.59405699 174.42835395 7.4375 160.9375 C8.96970411 159.63829222 10.49132363 158.32645614 12 157 C13.37488889 155.8332024 14.74987691 154.66652158 16.125 153.5 C17.07375 152.675 18.0225 151.85 19 151 C21.78823237 152.28923981 23.98996602 153.68619531 26.28515625 155.72265625 C27.19720825 156.52425171 27.19720825 156.52425171 28.12768555 157.34204102 C29.0854187 158.19366821 29.0854187 158.19366821 30.0625 159.0625 C35.52666809 163.86737176 41.04886203 168.55062537 46.73046875 173.09765625 C48.95111139 174.95902108 50.98476738 176.91990932 53 179 C51.62720562 180.54363101 50.2516406 182.08479814 48.875 183.625 C48.10929688 184.48351562 47.34359375 185.34203125 46.5546875 186.2265625 C45.71164062 187.14179687 44.86859375 188.05703125 44 189 C43.58814453 189.51135498 43.17628906 190.02270996 42.75195312 190.54956055 C38.32393568 195.66526252 33.15823018 196.93787128 26.75 198.5625 C25.11345459 198.99792114 25.11345459 198.99792114 23.44384766 199.44213867 C6.58761067 203.80839735 -10.67374974 207.18285668 -28 209 C-28.99515625 209.11085938 -29.9903125 209.22171875 -31.015625 209.3359375 C-55.41208263 211.65047322 -90.85527841 213.32748931 -111 197 C-114.45258624 194.11433251 -117.7583142 191.11998428 -121 188 C-121.67289063 187.35546875 -122.34578125 186.7109375 -123.0390625 186.046875 C-128.56404724 180.63944312 -133.3200664 174.83200787 -137 168 C-137 167.34 -137 166.68 -137 166 C-137.66 166 -138.32 166 -139 166 C-139.83986084 164.06532058 -140.67168027 162.12714871 -141.5 160.1875 C-141.9640625 159.10855469 -142.428125 158.02960938 -142.90625 156.91796875 C-144 154 -144 154 -144 151 C-144.66 151 -145.32 151 -146 151 C-153.05232619 131.31510895 -158.29226885 96.55250683 -148.99609375 76.875 C-148.66738281 76.25625 -148.33867187 75.6375 -148 75 C-147.60039379 73.46948211 -147.24622452 71.92640559 -146.9375 70.375 C-146.46377026 68.01809665 -146.07671842 66.15343684 -145 64 C-144.34 64 -143.68 64 -143 64 C-142.9175 63.360625 -142.835 62.72125 -142.75 62.0625 C-141.70479628 57.79458483 -139.85908174 53.96892333 -138 50 C-137.34 50 -136.68 50 -136 50 C-135.67 48.35 -135.34 46.7 -135 45 C-134.34 45 -133.68 45 -133 45 C-132.89365234 44.40993164 -132.78730469 43.81986328 -132.67773438 43.21191406 C-131.9052235 40.69067899 -130.95445296 39.51927445 -129.15625 37.609375 C-128.57456055 36.98643555 -127.99287109 36.36349609 -127.39355469 35.72167969 C-126.76868164 35.07102539 -126.14380859 34.42037109 -125.5 33.75 C-124.85708008 33.07614258 -124.21416016 32.40228516 -123.55175781 31.70800781 C-121.7120894 29.7943457 -119.8588309 27.89502806 -118 26 C-117.24203125 25.21625 -116.4840625 24.4325 -115.703125 23.625 C-86.96141178 -3.96704469 -37.32667462 -11.95140138 0 0 Z " fill="#091822" transform="translate(287,366)" />
  <path d="M0 0 C0.66 0 1.32 0 2 0 C-0.00539381 17.7524144 -2.4723162 35.40587332 -5.1875 53.0625 C-5.55960606 55.50189804 -5.93135237 57.94135099 -6.30273438 60.38085938 C-7.19770114 66.25454195 -8.09701273 72.12754538 -9 78 C-12.79183615 76.77843841 -16.03728709 75.56177743 -19.375 73.375 C-20.06335938 72.92898438 -20.75171875 72.48296875 -21.4609375 72.0234375 C-21.96882812 71.68570313 -22.47671875 71.34796875 -23 71 C-23.10699219 71.72703125 -23.21398437 72.4540625 -23.32421875 73.203125 C-26.80776193 87.62056383 -42.58625542 103.97787695 -52 115 C-52.93388173 116.10783022 -53.86745842 117.21591763 -54.80078125 118.32421875 C-67.56416253 133.41449806 -80.91359648 148.50954553 -96.0234375 161.3046875 C-98.50860194 163.4362317 -100.90440146 165.65683599 -103.3125 167.875 C-108.71493316 172.79507305 -114.28914757 177.44355013 -120 182 C-120.76256104 182.61198242 -120.76256104 182.61198242 -121.54052734 183.23632812 C-174.05621503 225.3259891 -233.53526536 258.57520312 -297 281 C-298.12776855 281.4031543 -299.25553711 281.80630859 -300.41748047 282.22167969 C-327.01665726 291.66513145 -354.12702026 298.51036422 -382 303 C-382.81745193 303.13510483 -383.63490387 303.27020966 -384.47712708 303.40940857 C-399.60567116 305.86912421 -414.43821127 306.52425076 -429.75 306.4375 C-431.46197067 306.43293793 -431.46197067 306.43293793 -433.20852661 306.42828369 C-449.75841624 306.36306902 -465.84851795 305.96202101 -482 302 C-482.94198242 301.77505859 -483.88396484 301.55011719 -484.85449219 301.31835938 C-504.0213532 296.61252877 -526.2304278 288.94818397 -538 272 C-538 271.34 -538 270.68 -538 270 C-538.66 270 -539.32 270 -540 270 C-540.33 268.35 -540.66 266.7 -541 265 C-541.66 265 -542.32 265 -543 265 C-543 263.68 -543 262.36 -543 261 C-543.66 261 -544.32 261 -545 261 C-546.39623357 256.16018788 -546.18417923 251.37607981 -546.1875 246.375 C-546.20586914 244.95380859 -546.20586914 244.95380859 -546.22460938 243.50390625 C-546.2399141 236.04540313 -545.36371179 229.09113536 -543 222 C-542.34 222 -541.68 222 -541 222 C-541.03665771 222.58265625 -541.07331543 223.1653125 -541.11108398 223.765625 C-542.00106633 240.14258767 -540.47518819 252.67294951 -529.75 265.5625 C-518.78661091 276.59984113 -504.41338353 282.15752103 -489.5625 285.75 C-488.33104248 286.04801514 -488.33104248 286.04801514 -487.07470703 286.35205078 C-471.87102509 289.80595322 -457.01672952 290.36828514 -441.5 290.3125 C-439.96814056 290.31026428 -439.96814056 290.31026428 -438.40533447 290.3079834 C-423.70038947 290.26933551 -409.47387985 289.78565352 -395 287 C-393.41825137 286.72881512 -391.836217 286.45929182 -390.25390625 286.19140625 C-342.09068931 277.64988025 -295.87002804 259.13136799 -252 238 C-251.08331543 237.56091309 -250.16663086 237.12182617 -249.22216797 236.66943359 C-221.58151189 223.37057842 -194.88540663 207.62820763 -170.10693359 189.53759766 C-167.85539367 187.89446921 -165.59376556 186.26578062 -163.33203125 184.63671875 C-149.69684556 174.7599142 -136.54757362 164.33292344 -124.1328125 152.94921875 C-122.05710952 151.0521935 -119.94311316 149.2099197 -117.8125 147.375 C-114.65586878 144.62955321 -111.71145991 141.73348645 -108.78125 138.75 C-106.91610326 136.91757513 -104.98072254 135.20646865 -103 133.5 C-97.16064465 128.4482263 -91.91190319 123.00265549 -86.875 117.15625 C-84.82640906 114.80037042 -82.72796998 112.4949254 -80.625 110.1875 C-73.65240442 102.4441243 -67.14098774 94.51218703 -61.41015625 85.80078125 C-60.94480469 85.20652344 -60.47945312 84.61226563 -60 84 C-59.34 84 -58.68 84 -58 84 C-57.71125 83.236875 -57.4225 82.47375 -57.125 81.6875 C-56 79 -56 79 -54 76 C-53.34 76 -52.68 76 -52 76 C-52 75.01 -52 74.02 -52 73 C-51.34 73 -50.68 73 -50 73 C-49.87625 72.401875 -49.7525 71.80375 -49.625 71.1875 C-49 69 -49 69 -47 66 C-46.34 66 -45.68 66 -45 66 C-45 65.34 -45 64.68 -45 64 C-45.99580078 63.81824219 -45.99580078 63.81824219 -47.01171875 63.6328125 C-51.53424459 62.77452292 -55.79938524 61.96028689 -60 60 C-57.17226749 57.02101669 -54.24386426 54.65499017 -50.875 52.3125 C-46.06816094 48.86898547 -41.68293756 45.16314855 -37.33984375 41.15625 C-35.2204366 39.20314024 -33.06238106 37.31361631 -30.875 35.4375 C-20.73695459 26.5590915 -12.41762741 16.39117081 -4.41015625 5.58203125 C-3.71212891 4.79892578 -3.71212891 4.79892578 -3 4 C-2.34 4 -1.68 4 -1 4 C-0.67 2.68 -0.34 1.36 0 0 Z " fill="#F19803" transform="translate(677,289)" />
  <path d="M0 0 C0.76591461 0.00304138 1.53182922 0.00608276 2.32095337 0.00921631 C14.17929253 0.0787395 25.38354889 0.79476456 36.75 4.4375 C37.42933594 4.64648926 38.10867188 4.85547852 38.80859375 5.07080078 C57.64029936 11.01133173 77.16770825 21.99739268 88.75 38.4375 C88.8943492 41.50347709 87.74548874 42.44274995 85.74609375 44.76953125 C76.77969916 53.4621428 67.36044432 61.47684862 57.75 69.4375 C54.79799613 68.12620214 52.99132462 66.79447382 50.875 64.375 C37.85996656 51.05405765 19.76710041 44.66213115 1.4375 44.125 C-16.36469142 44.52766862 -32.13954055 50.40026558 -44.97265625 62.828125 C-47.89063829 66.17154181 -50.09005274 69.66905573 -52.12890625 73.6015625 C-52.68384766 74.51035156 -52.68384766 74.51035156 -53.25 75.4375 C-53.91 75.4375 -54.57 75.4375 -55.25 75.4375 C-55.43175781 76.10394531 -55.61351562 76.77039063 -55.80078125 77.45703125 C-56.17783203 78.83955078 -56.17783203 78.83955078 -56.5625 80.25 C-56.83449219 81.2503125 -57.10648437 82.250625 -57.38671875 83.28125 C-57.9456123 85.32462552 -58.51034138 87.36641761 -59.08203125 89.40625 C-59.34371094 90.3446875 -59.60539062 91.283125 -59.875 92.25 C-60.11476563 93.10207031 -60.35453125 93.95414062 -60.6015625 94.83203125 C-65.54713847 114.70371302 -61.71559471 135.58518482 -52.25 153.4375 C-50.93225799 155.11652101 -49.60318562 156.78691094 -48.25 158.4375 C-48.25 159.0975 -48.25 159.7575 -48.25 160.4375 C-74.68750727 173.39179089 -74.68750727 173.39179089 -85.3125 177.75 C-86.00077881 178.03302979 -86.68905762 178.31605957 -87.39819336 178.60766602 C-91.96775293 180.4375 -91.96775293 180.4375 -94.25 180.4375 C-95.5390625 178.7578125 -95.5390625 178.7578125 -96.875 176.5625 C-97.32101562 175.84320312 -97.76703125 175.12390625 -98.2265625 174.3828125 C-99.25 172.4375 -99.25 172.4375 -99.25 170.4375 C-99.91 170.4375 -100.57 170.4375 -101.25 170.4375 C-105.18757026 162.69813777 -108.48560568 155.16063076 -110.875 146.8125 C-111.0915625 146.07515625 -111.308125 145.3378125 -111.53125 144.578125 C-113.43922088 138.00622531 -114.40787359 132.04347936 -114.41796875 125.1640625 C-114.42129715 124.36326263 -114.42462555 123.56246277 -114.42805481 122.73739624 C-114.43310809 121.04124523 -114.43546363 119.34508431 -114.43530273 117.64892578 C-114.43746337 115.10561726 -114.45556359 112.56276163 -114.47460938 110.01953125 C-114.51948686 97.45859278 -114.36270178 84.6912199 -109.8125 72.8125 C-109.40128906 71.70648438 -108.99007813 70.60046875 -108.56640625 69.4609375 C-107.32401865 66.60750128 -105.88346009 64.0802525 -104.25 61.4375 C-103.67970248 60.22135272 -103.13348033 58.99326233 -102.625 57.75 C-101.88134744 55.95847337 -101.11747759 54.17245517 -100.25 52.4375 C-99.59 52.4375 -98.93 52.4375 -98.25 52.4375 C-98.25 51.4475 -98.25 50.4575 -98.25 49.4375 C-97.59 49.4375 -96.93 49.4375 -96.25 49.4375 C-96.25 48.4475 -96.25 47.4575 -96.25 46.4375 C-95.59 46.4375 -94.93 46.4375 -94.25 46.4375 C-93.92 45.1175 -93.59 43.7975 -93.25 42.4375 C-92.59 42.4375 -91.93 42.4375 -91.25 42.4375 C-91.03988281 41.90511719 -90.82976562 41.37273437 -90.61328125 40.82421875 C-79.94939828 22.15478466 -54.5268957 9.58625755 -34.56884766 4.02319336 C-22.8836681 1.07175666 -12.02172298 -0.10164496 0 0 Z " fill="#091822" transform="translate(473.25,361.5625)" />
  <path d="M0 0 C2.73362753 1.26936947 4.92280422 2.62408666 7.1796875 4.6171875 C8.06901978 5.39606323 8.06901978 5.39606323 8.97631836 6.19067383 C9.6028833 6.74650146 10.22944824 7.3023291 10.875 7.875 C12.20667725 9.04337235 13.53871791 10.21133061 14.87109375 11.37890625 C15.88985596 12.27440186 15.88985596 12.27440186 16.92919922 13.18798828 C20.24359346 16.08818093 23.5899408 18.95072291 26.9375 21.8125 C27.85088135 22.59439697 27.85088135 22.59439697 28.78271484 23.39208984 C30.188117 24.59514673 31.59399967 25.79764225 33 27 C18.0351392 49.03686254 -5.82052767 62.76492535 -31.60546875 67.96484375 C-61.74516524 73.47274464 -93.9193371 70.03151893 -120 53 C-121.68549378 51.35237557 -123.35470159 49.68776441 -125 48 C-124.20118408 47.65855957 -123.40236816 47.31711914 -122.5793457 46.96533203 C-119.51165412 45.65164444 -116.44593177 44.33351171 -113.38095093 43.01351929 C-111.30630346 42.12233823 -109.2290125 41.23752286 -107.15161133 40.3527832 C-101.04973536 37.73834315 -95.03182361 35.11636325 -89.2109375 31.91015625 C-77.31868322 25.40266758 -68.39356398 24.32332693 -54.89453125 24.8828125 C-37.27863562 25.52133574 -20.06326912 17.48389847 -7 6 C-6.3090625 5.41605469 -5.618125 4.83210937 -4.90625 4.23046875 C-3.25864076 2.83457759 -1.62727795 1.41954034 0 0 Z " fill="#091821" transform="translate(530,517)" />
  <path d="M0 0 C0.99 0 1.98 0 3 0 C3.21914063 0.90621094 3.43828125 1.81242188 3.6640625 2.74609375 C6.35245364 13.07344997 9.66598009 21.41788709 18.69921875 27.71484375 C22.9083367 30.06594698 27.41090181 31.56590682 32 33 C32 33.66 32 34.32 32 35 C31.40574219 35.12375 30.81148437 35.2475 30.19921875 35.375 C21.63787891 37.50534895 14.10362942 41.44057634 9.04296875 48.875 C5.96324074 54.7497123 4.08795308 60.47228155 3 67 C2.34 67 1.68 67 1 67 C0.78085937 66.16597656 0.56171875 65.33195312 0.3359375 64.47265625 C-2.67656565 53.78194385 -6.06066898 46.10555844 -15.765625 40.2109375 C-20.65712127 37.55995176 -25.69398215 35.6823959 -31 34 C-31 33.67 -31 33.34 -31 33 C-30.13117187 32.75765625 -29.26234375 32.5153125 -28.3671875 32.265625 C-18.76566571 29.47323611 -11.78082579 26.37894974 -6 18 C-4.48519358 15.06389373 -3.18796705 12.08172629 -2 9 C-1.34 9 -0.68 9 0 9 C0 6.03 0 3.06 0 0 Z " fill="#F29C06" transform="translate(707,228)" />
  <path d="M0 0 C0.66 0.33 1.32 0.66 2 1 C0.61824333 1.8373896 0.61824333 1.8373896 -0.79142761 2.69169617 C-6.15071441 6.5304288 -10.19015971 10.62489714 -11.76462173 17.18664932 C-12.86937445 26.21587322 -12.67297946 35.31652322 -12.52005029 44.3959105 C-12.46649763 48.39709256 -12.48728488 52.39791527 -12.49980164 56.39933777 C-12.51234531 63.95748309 -12.45914117 71.51364123 -12.38163012 79.07134122 C-12.29655836 87.68333955 -12.28581758 96.29494561 -12.28096449 104.90730441 C-12.26934439 122.60596219 -12.15573219 140.3019831 -12 158 C1.53 158 15.06 158 29 158 C29 128.3 29 98.6 29 68 C63.32 68 97.64 68 133 68 C133 68.33 133 68.66 133 69 C99.34 69 65.68 69 31 69 C31 99.03 31 129.06 31 160 C16.15 160 1.3 160 -14 160 C-14.18066809 140.95445664 -14.32800086 121.90960822 -14.41449738 102.86342525 C-14.45572875 94.01972184 -14.51192908 85.17658906 -14.60351562 76.33325195 C-14.68331551 68.62431868 -14.73488017 60.9157987 -14.75270796 53.20646387 C-14.76312782 49.12509241 -14.78756928 45.04490313 -14.84584045 40.96391106 C-14.9002834 37.11975736 -14.91686585 33.27726858 -14.90486145 29.43276596 C-14.90705625 28.02462642 -14.92289108 26.61642929 -14.9536438 25.20862389 C-15.17434575 14.58091489 -15.17434575 14.58091489 -12.2809906 10.68585396 C-10.27187263 8.91845739 -8.22734127 7.47554832 -6 6 C-4.80604365 4.88263105 -3.63665431 3.73811138 -2.5 2.5625 C-1.675 1.716875 -0.85 0.87125 0 0 Z " fill="#272E34" transform="translate(615,423)" />
  <path d="M0 0 C14.85 0 29.7 0 45 0 C45.04509749 26.43337265 45.08196035 52.86671428 45.10362434 79.30011559 C45.11394939 91.57281239 45.12803312 103.84548365 45.15087891 116.11816406 C45.17077525 126.81148725 45.18370749 137.50479193 45.18817699 148.19813311 C45.19079075 153.86336787 45.19695959 159.5285497 45.21146011 165.19376755 C45.22498476 170.52062872 45.22923306 175.8474149 45.22621536 181.17429161 C45.22676783 183.13432535 45.23077561 185.09436147 45.23841095 187.05438042 C45.24829223 189.72062257 45.24599402 192.38657779 45.24050903 195.05282593 C45.24633472 195.83686275 45.2521604 196.62089957 45.25816262 197.42869508 C45.22824242 202.77175758 45.22824242 202.77175758 43 205 C43 138.01 43 71.02 43 2 C28.81 2 14.62 2 0 2 C0 1.34 0 0.68 0 0 Z " fill="#060E15" transform="translate(749,370)" />
  <path d="M0 0 C0.66 0 1.32 0 2 0 C2.13535156 0.55429688 2.27070312 1.10859375 2.41015625 1.6796875 C3.09399921 3.98100333 3.77508175 5.93031054 5 8 C8.54863159 9.61135346 8.54863159 9.61135346 12 10 C9.08235 11.9451 7.37462715 12.45276317 4 13 C3.34 15.97 2.68 18.94 2 22 C1.34 22 0.68 22 0 22 C-0.66 19.03 -1.32 16.06 -2 13 C-4.64 12.34 -7.28 11.68 -10 11 C-10 10.67 -10 10.34 -10 10 C-7.36 9.67 -4.72 9.34 -2 9 C-1.34 6.03 -0.68 3.06 0 0 Z " fill="#F1991C" transform="translate(639,243)" />
  <path d="M0 0 C0.66 0 1.32 0 2 0 C2.66 2.64 3.32 5.28 4 8 C6.64 8.66 9.28 9.32 12 10 C12 10.33 12 10.66 12 11 C9.03 11.66 6.06 12.32 3 13 C2.67 14.65 2.34 16.3 2 18 C1.34 17.67 0.68 17.34 0 17 C0 16.01 0 15.02 0 14 C-3.3 13.01 -6.6 12.02 -10 11 C-9.67 10.34 -9.34 9.68 -9 9 C-6.35139573 8.40644386 -3.70802678 8.25790731 -1 8 C-0.67 5.36 -0.34 2.72 0 0 Z " fill="#F09510" transform="translate(566,330)" />
  <path d="M0 0 C0.99 0 1.98 0 3 0 C3.20625 1.11375 3.4125 2.2275 3.625 3.375 C4.61628301 7.26599195 4.61628301 7.26599195 8.125 8.4375 C9.07375 8.623125 10.0225 8.80875 11 9 C8 11 8 11 5 12 C3.28432339 15.50294871 3.28432339 15.50294871 2 19 C1.34 19 0.68 19 0 19 C-0.20625 17.88625 -0.4125 16.7725 -0.625 15.625 C-1.61628301 11.73400805 -1.61628301 11.73400805 -5.125 10.5625 C-6.07375 10.376875 -7.0225 10.19125 -8 10 C-7.401875 9.731875 -6.80375 9.46375 -6.1875 9.1875 C-3.93395607 7.96414758 -2.57141964 7.02039668 -1 5 C-0.27802838 2.39388923 -0.27802838 2.39388923 0 0 Z " fill="#F29F2B" transform="translate(700,334)" />
  <path d="M0 0 C0.66 0 1.32 0 2 0 C2.185625 1.11375 2.37125 2.2275 2.5625 3.375 C3.036875 4.57125 3.51125 5.7675 4 7 C7.51400668 8.54086322 7.51400668 8.54086322 11 9 C8 11 8 11 5.9375 11.75 C3.09887472 13.58137115 2.82688878 15.83025969 2 19 C1.34 19 0.68 19 0 19 C-0.20625 17.88625 -0.4125 16.7725 -0.625 15.625 C-1.61628301 11.73400805 -1.61628301 11.73400805 -5.125 10.5625 C-6.07375 10.376875 -7.0225 10.19125 -8 10 C-6 9 -4 8 -2 7 C-1.26924352 4.6859378 -0.59861742 2.35171131 0 0 Z " fill="#F29C27" transform="translate(675,209)" />
  <path d="M0 0 C0.66 0 1.32 0 2 0 C2.15855469 0.56589844 2.31710937 1.13179688 2.48046875 1.71484375 C3.18581705 3.93220942 3.89153152 5.95193129 5 8 C7.57080135 9.13440778 7.57080135 9.13440778 10 9 C10 9.66 10 10.32 10 11 C8.576875 11.2784375 8.576875 11.2784375 7.125 11.5625 C3.61628301 12.73400805 3.61628301 12.73400805 2.625 16.625 C2.41875 17.73875 2.2125 18.8525 2 20 C1.34 20 0.68 20 0 20 C-0.33 17.36 -0.66 14.72 -1 12 C-3.31 11.34 -5.62 10.68 -8 10 C-8 9.67 -8 9.34 -8 9 C-4.535 8.505 -4.535 8.505 -1 8 C-0.67 5.36 -0.34 2.72 0 0 Z " fill="#F19A1F" transform="translate(605,282)" />
  <path d="M0 0 C0.66 0 1.32 0 2 0 C2 7.92 2 15.84 2 24 C1.34 24.33 0.68 24.66 0 25 C-0.144375 23.865625 -0.28875 22.73125 -0.4375 21.5625 C-0.61171478 18.19222799 -0.61171478 18.19222799 -2 17 C-2.43634266 11.04341538 -2.40312827 5.55723413 0 0 Z " fill="#EF8D0D" transform="translate(134,511)" />
  <path d="M0 0 C0.66 0 1.32 0 2 0 C1.45462284 9.44363607 0.46291615 18.65438032 -1 28 C-1.33 28 -1.66 28 -2 28 C-3.02817496 21.25217625 -2.78264001 15.63009777 -1.5625 8.9375 C-1.41490234 8.07189453 -1.26730469 7.20628906 -1.11523438 6.31445312 C-0.75441525 4.20773498 -0.37877007 2.10356483 0 0 Z " fill="#F19A2E" transform="translate(675,300)" />
  <path d="M0 0 C0.33 0 0.66 0 1 0 C1.31274919 8.51372785 0.37292913 16.6030674 -1 25 C-1.33 25 -1.66 25 -2 25 C-3.04473009 18.91150676 -2.79014097 14.02850078 -1.5625 8 C-1.41490234 7.22527344 -1.26730469 6.45054687 -1.11523438 5.65234375 C-0.75429222 3.76612989 -0.37868583 1.88273179 0 0 Z " fill="#F0972B" transform="translate(671,329)" />
  <path d="M0 0 C2.79192205 -0.05380578 5.5828141 -0.09357669 8.375 -0.125 C9.1690625 -0.14175781 9.963125 -0.15851562 10.78125 -0.17578125 C12.85492015 -0.19335473 14.92883241 -0.10335168 17 0 C17.66 0.66 18.32 1.32 19 2 C13.03325384 3.32594359 7.07416385 3.0884587 1 3 C0.67 2.01 0.34 1.02 0 0 Z " fill="#0A1117" transform="translate(470,584)" />
  <path d="M0 0 C-0.66 0 -1.32 0 -2 0 C2.56086831 5.53819723 8.58511177 8.02275522 15 11 C12 12 12 12 9.0390625 10.7421875 C7.91242188 10.12601563 6.78578125 9.50984375 5.625 8.875 C4.50351562 8.27429688 3.38203125 7.67359375 2.2265625 7.0546875 C-1.08990376 4.94274893 -3.35130021 2.86694472 -6 0 C-3.50907189 -1.24546405 -2.58919267 -0.7767578 0 0 Z " fill="#0C0F12" transform="translate(411,565)" />
  <path d="M0 0 C0.99 0 1.98 0 3 0 C3.50471197 1.76949612 4.00360685 3.54065223 4.5 5.3125 C4.7784375 6.29863281 5.056875 7.28476563 5.34375 8.30078125 C6 11 6 11 6 14 C5.34 14 4.68 14 4 14 C3.71125 13.030625 3.4225 12.06125 3.125 11.0625 C2.35785318 7.89335797 2.35785318 7.89335797 0 7 C0 4.69 0 2.38 0 0 Z " fill="#F3AB4B" transform="translate(707,228)" />
  <path d="M0 0 C0.66 0 1.32 0 2 0 C0.68 5.28 -0.64 10.56 -2 16 C-2.66 16 -3.32 16 -4 16 C-4.66 13.03 -5.32 10.06 -6 7 C-5.01 7 -4.02 7 -3 7 C-2.67 6.01 -2.34 5.02 -2 4 C-1.34 4 -0.68 4 0 4 C0 2.68 0 1.36 0 0 Z " fill="#F3A136" transform="translate(712,279)" />
  <path d="M0 0 C3.46941546 0.45822468 6.67395049 0.89131683 10 2 C10 2.66 10 3.32 10 4 C4.555 5.485 4.555 5.485 -1 7 C-1 6.34 -1 5.68 -1 5 C-0.34 5 0.32 5 1 5 C0.67 3.35 0.34 1.7 0 0 Z " fill="#F19110" transform="translate(729,259)" />
  <path d="M0 0 C6.11090483 -0.09945415 11.97403427 -0.0712828 18 1 C18 1.33 18 1.66 18 2 C12.03325384 3.32594359 6.07416385 3.0884587 0 3 C0 2.01 0 1.02 0 0 Z " fill="#182129" transform="translate(459,584)" />
  <path d="M0 0 C0.66 0 1.32 0 2 0 C2.66 2.64 3.32 5.28 4 8 C1.69 8.66 -0.62 9.32 -3 10 C-3.33 9.34 -3.66 8.68 -4 8 C-3.34 7.67 -2.68 7.34 -2 7 C-1.26924352 4.6859378 -0.59861742 2.35171131 0 0 Z " fill="#F3A639" transform="translate(675,209)" />
  <path d="M0 0 C1.70884005 1.62339805 3.37446717 3.29319053 5 5 C5 5.66 5 6.32 5 7 C-0.445 9.475 -0.445 9.475 -6 12 C-6 11.34 -6 10.68 -6 10 C-3.69 8.68 -1.38 7.36 1 6 C0.67 4.02 0.34 2.04 0 0 Z " fill="#2B2E31" transform="translate(420,515)" />
  <path d="M0 0 C0.66 0.33 1.32 0.66 2 1 C0.90344712 2.31886772 -0.20253423 3.62990057 -1.3125 4.9375 C-1.92738281 5.66839844 -2.54226563 6.39929688 -3.17578125 7.15234375 C-5 9 -5 9 -8 10 C-8 7 -8 7 -6.25 5.17578125 C-5.5075 4.56089844 -4.765 3.94601562 -4 3.3125 C-3.2575 2.68988281 -2.515 2.06726563 -1.75 1.42578125 C-1.1725 0.95527344 -0.595 0.48476563 0 0 Z " fill="#F29A14" transform="translate(555,440)" />
  <path d="M0 0 C3.59634744 3.49359465 6.83451967 7.11098131 10 11 C7 11 7 11 4.3125 8.625 C2 6 2 6 2 4 C1.34 4 0.68 4 0 4 C0 2.68 0 1.36 0 0 Z " fill="#2D3236" transform="translate(199,517)" />
  <path d="M0 0 C0.66 0 1.32 0 2 0 C1.67 5.61 1.34 11.22 1 17 C0.67 17 0.34 17 0 17 C-0.22786458 15.01432292 -0.45572917 13.02864583 -0.68359375 11.04296875 C-0.97170735 8.80603607 -0.97170735 8.80603607 -2 6 C-1.0625 2.8125 -1.0625 2.8125 0 0 Z " fill="#F2AC61" transform="translate(134,511)" />
  <path d="M0 0 C0.33 0 0.66 0 1 0 C0.67 4.29 0.34 8.58 0 13 C-2.475 12.01 -2.475 12.01 -5 11 C-4.01 10.67 -3.02 10.34 -2 10 C-2 8.35 -2 6.7 -2 5 C-1.34 5 -0.68 5 0 5 C0 3.35 0 1.7 0 0 Z " fill="#F09E3A" transform="translate(668,354)" />
  <path d="M0 0 C-0.66 0.66 -1.32 1.32 -2 2 C-5.0390625 1.9765625 -5.0390625 1.9765625 -8.625 1.625 C-9.81351563 1.51414062 -11.00203125 1.40328125 -12.2265625 1.2890625 C-13.14179688 1.19367188 -14.05703125 1.09828125 -15 1 C-15 0.67 -15 0.34 -15 0 C-9.62374766 -0.84888195 -5.34629602 -1.0024305 0 0 Z " fill="#171D23" transform="translate(241,363)" />
  <path d="M0 0 C0.66 0 1.32 0 2 0 C2.66 2.64 3.32 5.28 4 8 C2.68 7.67 1.36 7.34 0 7 C0 7.66 0 8.32 0 9 C-0.66 9 -1.32 9 -2 9 C-1.34 6.03 -0.68 3.06 0 0 Z " fill="#F5AC50" transform="translate(639,243)" />
  <path d="M0 0 C0.66 0 1.32 0 2 0 C2.08333357 4.8333472 1.95261487 9.23692563 1 14 C0.67 14 0.34 14 0 14 C-1.33257403 4.58997722 -1.33257403 4.58997722 0 0 Z " fill="#F39F39" transform="translate(673,314)" />
  <path d="M0 0 C2 2 2 2 2 5 C-1 7.1875 -1 7.1875 -4 9 C-4.66 8.67 -5.32 8.34 -6 8 C-4.02 5.36 -2.04 2.72 0 0 Z " fill="#F29D1F" transform="translate(674,293)" />
  <path d="M0 0 C0.66 0 1.32 0 2 0 C1.67 2.97 1.34 5.94 1 9 C0.01 9.33 -0.98 9.66 -2 10 C-1.34 6.7 -0.68 3.4 0 0 Z " fill="#F2A841" transform="translate(605,282)" />
  <path d="M0 0 C1.52453435 2.94017338 2.95157395 5.85472185 4 9 C3.67 9.99 3.34 10.98 3 12 C1 11 1 11 0.33203125 9.2578125 C0.16058594 8.55398438 -0.01085937 7.85015625 -0.1875 7.125 C-0.36667969 6.42632812 -0.54585938 5.72765625 -0.73046875 5.0078125 C-1 3 -1 3 0 0 Z " fill="#404447" transform="translate(412,495)" />
  <path d="M0 0 C0.66 1.32 1.32 2.64 2 4 C2.33 4.33 2.66 4.66 3 5 C3.04092937 7.33297433 3.04241723 9.66705225 3 12 C2.01 12.495 2.01 12.495 1 13 C0.67 8.71 0.34 4.42 0 0 Z " fill="#F49D11" transform="translate(131,524)" />
  <path d="M0 0 C2.93200474 2.85276137 5.64315404 5.65079784 8 9 C7.01 9 6.02 9 5 9 C0 3.76744186 0 3.76744186 0 0 Z " fill="#293035" transform="translate(554,392)" />
  <path d="M0 0 C0.33 0.99 0.66 1.98 1 3 C-0.125 5.1875 -0.125 5.1875 -2 7 C-4.6875 7.25 -4.6875 7.25 -7 7 C-4.66666667 4.66666667 -2.33333333 2.33333333 0 0 Z " fill="#F39B15" transform="translate(633,336)" />
  <path d="M0 0 C0.66 0.33 1.32 0.66 2 1 C-0.20979308 3.81939117 -2.40062046 6.53058944 -5 9 C-5.66 8.34 -6.32 7.68 -7 7 C-4.69 4.69 -2.38 2.38 0 0 Z " fill="#262D31" transform="translate(622,415)" />
  <path d="M0 0 C0.66 0.99 1.32 1.98 2 3 C0.35 4.98 -1.3 6.96 -3 9 C-3.66 8.01 -4.32 7.02 -5 6 C-3.35 4.02 -1.7 2.04 0 0 Z " fill="#F4A01C" transform="translate(608,385)" />
  <path d="M0 0 C0.66 0 1.32 0 2 0 C2.66 2.64 3.32 5.28 4 8 C2.35 7.67 0.7 7.34 -1 7 C-0.67 4.69 -0.34 2.38 0 0 Z " fill="#F3A648" transform="translate(566,330)" />
  <path d="M0 0 C0.66 0.66 1.32 1.32 2 2 C-0.97 4.475 -0.97 4.475 -4 7 C-4.66 6.34 -5.32 5.68 -6 5 C-4.02 3.35 -2.04 1.7 0 0 Z " fill="#F29A16" transform="translate(535,457)" />
  <path d="M0 0 C0 3 0 3 -2.5 5.6875 C-3.325 6.450625 -4.15 7.21375 -5 8 C-4.45773019 4.20411134 -2.79872437 2.52788007 0 0 Z " fill="#F4A021" transform="translate(568,428)" />
  <path d="M0 0 C0.99 1.485 0.99 1.485 2 3 C2.66 2.34 3.32 1.68 4 1 C3.67 2.98 3.34 4.96 3 7 C2.01 6.67 1.02 6.34 0 6 C0 4.02 0 2.04 0 0 Z " fill="#F8C993" transform="translate(565,344)" />
</svg>