<?xml version="1.0" encoding="utf-8"?>
<svg version="1.2" width="686" height="686" baseProfile="tiny-ps" xmlns="http://www.w3.org/2000/svg">
  <title>CCHLOGOSPARK-BIMI</title>
  <path d="M0 0 C226.38 0 452.76 0 686 0 C686 226.38 686 452.76 686 686 C459.62 686 233.24 686 0 686 C0 459.62 0 233.24 0 0 Z " fill="#FEFEFE" transform="translate(0,0)" />
  <path d="M0 0 C15.51 0 31.02 0 47 0 C47 70.62 47 141.24 47 214 C31.49 214 15.98 214 0 214 C0 183.97 0 153.94 0 123 C-33.33 123 -66.66 123 -101 123 C-101 153.03 -101 183.06 -101 214 C-116.18 214 -131.36 214 -147 214 C-147.45333651 195.17886278 -147.82092171 176.36221405 -148.03624344 157.53698349 C-148.13892615 148.79397471 -148.27860738 140.05462339 -148.50878906 131.31396484 C-148.70957552 123.68582128 -148.83748856 116.06032712 -148.8817699 108.42961431 C-148.90762283 104.39586772 -148.96727912 100.36969166 -149.11460114 96.33840179 C-150.04087066 69.98501558 -150.04087066 69.98501558 -142.59240723 60.64929199 C-138.48377035 56.25354182 -134.0257062 52.45918189 -129.25377655 48.80567169 C-126.34916707 46.47856827 -124.20740162 44.00220866 -121.9375 41.0625 C-118.35655417 36.44802916 -114.62543138 32.00274563 -110.80249023 27.58813477 C-108.60824372 25.02352051 -106.57719249 22.43912729 -104.73828125 19.61328125 C-104.16464844 18.75089844 -103.59101562 17.88851563 -103 17 C-102.67 17 -102.34 17 -102 17 C-102 37.79 -102 58.58 -102 80 C-68.34 80 -34.68 80 0 80 C0 53.6 0 27.2 0 0 Z " fill="#0D1B25" transform="translate(627,252)" />
  <path d="M0 0 C0.77501862 0.00054382 1.55003723 0.00108765 2.34854126 0.00164795 C13.99530298 0.03924192 24.74209692 0.6947968 35.875 4.375 C36.85460693 4.67253174 36.85460693 4.67253174 37.85400391 4.97607422 C55.43087667 10.34524288 70.03950526 20.41401858 82.875 33.375 C83.99430255 34.49397905 85.11408828 35.61247502 86.234375 36.73046875 C87.10578125 37.60316406 87.9771875 38.47585938 88.875 39.375 C87.29149978 43.73221302 83.89567033 46.1979578 80.4375 49.0625 C79.81294922 49.58851807 79.18839844 50.11453613 78.54492188 50.65649414 C76.66190273 52.2379135 74.77051627 53.80859092 72.875 55.375 C72.06458252 56.04499023 72.06458252 56.04499023 71.23779297 56.72851562 C68.90943531 58.64853355 66.57280725 60.55800371 64.23046875 62.4609375 C61.4243559 64.74119504 58.64652185 67.05291413 55.875 69.375 C52.86466488 68.04213024 50.99861666 66.63080686 48.8125 64.1875 C45.03162773 60.24152414 40.72529415 57.61400208 36.03515625 54.85546875 C35.32230469 54.36691406 34.60945312 53.87835938 33.875 53.375 C33.875 52.715 33.875 52.055 33.875 51.375 C33.070625 51.2925 32.26625 51.21 31.4375 51.125 C27.64448229 50.32646996 24.59027187 48.99452576 21.12109375 47.3125 C8.64470309 42.10496303 -11.60165703 43.98369792 -24.125 48.375 C-25.80905525 49.34543067 -27.4783364 50.34239322 -29.125 51.375 C-30.176875 51.74625 -31.22875 52.1175 -32.3125 52.5 C-37.83820135 54.79232152 -41.91950431 59.24634892 -46.125 63.375 C-46.97964844 64.19291016 -46.97964844 64.19291016 -47.8515625 65.02734375 C-60.57485145 78.39700299 -63.58754974 97.85680392 -63.33984375 115.53125 C-62.8087062 131.99981292 -58.28893319 146.2646682 -48.125 159.375 C-47.66480469 160.01179687 -47.20460938 160.64859375 -46.73046875 161.3046875 C-38.05090174 172.56061013 -23.61634341 176.9852146 -10.125 179.375 C10.56232247 180.93375169 28.96253542 177.77374358 45.21044922 164.00610352 C46.33845755 163.02240498 47.45654687 162.02718245 48.56298828 161.01928711 C53.26690999 156.76959392 53.26690999 156.76959392 56.875 156.375 C59.25105887 158.08818385 61.2977732 159.77592194 63.4375 161.75 C64.68922845 162.86426578 65.9418428 163.97753711 67.1953125 165.08984375 C67.81567383 165.64655762 68.43603516 166.20327148 69.07519531 166.77685547 C75.36685254 172.36356032 81.94631405 177.60190524 88.875 182.375 C87.20981689 186.45866335 84.32807123 189.43537785 81.375 192.625 C80.87613281 193.17929687 80.37726563 193.73359375 79.86328125 194.3046875 C78.5781646 195.7035008 77.23066232 197.04444254 75.875 198.375 C75.215 198.375 74.555 198.375 73.875 198.375 C73.875 199.035 73.875 199.695 73.875 200.375 C71.54213885 201.0433504 69.20873362 201.70970632 66.875 202.375 C66.11010254 202.59381836 65.34520508 202.81263672 64.55712891 203.03808594 C54.60344215 205.86965356 44.64726096 208.57409652 34.5 210.625 C33.76628174 210.77565918 33.03256348 210.92631836 32.27661133 211.08154297 C29.81524201 211.55904593 27.35033314 211.97583795 24.875 212.375 C23.78678955 212.55522705 22.6985791 212.7354541 21.57739258 212.92114258 C10.23551597 214.58087564 -1.00769522 214.64799043 -12.45532227 214.58081055 C-15.71313184 214.56235479 -18.97065875 214.56030293 -22.22851562 214.56054688 C-24.32031494 214.55563695 -26.41211236 214.54981094 -28.50390625 214.54296875 C-29.94933556 214.54129951 -29.94933556 214.54129951 -31.42396545 214.53959656 C-36.42835949 214.50446623 -41.19151072 214.22648024 -46.125 213.375 C-46.125 212.715 -46.125 212.055 -46.125 211.375 C-46.73085937 211.32601562 -47.33671875 211.27703125 -47.9609375 211.2265625 C-49.74169285 211.06766433 -51.52037613 210.88456639 -53.296875 210.68359375 C-55.01057701 210.4966014 -56.73053344 210.3516321 -58.453125 210.28515625 C-70.32754985 209.13406404 -82.78272734 197.20431522 -90.125 188.375 C-111.54175583 161.41345302 -119.23660926 129.18641528 -115.4375 95.125 C-114.25480244 86.86277478 -111.92932203 79.20747961 -109.125 71.375 C-108.75503906 70.32570313 -108.38507813 69.27640625 -108.00390625 68.1953125 C-97.15986006 39.9032335 -73.24766197 19.48583475 -46.125 7.375 C-40.59631648 5.23718061 -34.92179909 3.6104044 -29.125 2.375 C-28.27679688 2.19243652 -27.42859375 2.00987305 -26.5546875 1.82177734 C-17.72308095 0.13045842 -8.95582672 -0.02363929 0 0 Z " fill="#0A1923" transform="translate(130.125,243.625)" />
  <path d="M0 0 C1.32735127 3.79319104 0.77503141 6.96247924 0.21484375 10.89453125 C0.0705191 11.92712318 0.0705191 11.92712318 -0.07672119 12.98057556 C-0.3975758 15.25905803 -0.72980119 17.53571922 -1.0625 19.8125 C-1.28907753 21.40065601 -1.5152261 22.98887327 -1.7409668 24.57714844 C-4.33970909 42.74091087 -7.15970288 60.87269717 -10 79 C-13.18741239 77.76076086 -16.26436318 76.42490008 -19.3125 74.875 C-20.00988281 74.52179688 -20.70726562 74.16859375 -21.42578125 73.8046875 C-21.94527344 73.53914063 -22.46476563 73.27359375 -23 73 C-23.85658203 74.41925781 -23.85658203 74.41925781 -24.73046875 75.8671875 C-33.87272014 90.84728518 -43.91906144 105.01954708 -55.49243164 118.22119141 C-56.62767198 119.56068308 -57.73104556 120.9272803 -58.81811523 122.30615234 C-64.92316516 130.01323665 -71.64988042 136.92400689 -78.62963867 143.83544922 C-80.5681756 145.75562183 -82.49848211 147.68378456 -84.42773438 149.61328125 C-90.44858498 155.61709728 -96.4820238 161.53116636 -103 167 C-104.09498137 167.94910206 -105.18875745 168.89959667 -106.28125 169.8515625 C-118.87883593 180.73094321 -131.6304659 191.28517274 -145.29541016 200.80273438 C-147.00478485 202.00336077 -148.69762425 203.22416146 -150.38671875 204.453125 C-174.60015401 222.05027984 -200.57682618 237.00426803 -227 251 C-228.82697956 251.97496695 -230.65380697 252.95021906 -232.48046875 253.92578125 C-234.17410307 254.82622858 -235.8680939 255.7260058 -237.5625 256.625 C-238.31772949 257.0269458 -239.07295898 257.4288916 -239.85107422 257.84301758 C-245.9156036 261.03621444 -252.0886544 263.6937313 -258.5 266.125 C-265.94381511 268.96734151 -273.36094963 271.87649084 -280.77734375 274.78955078 C-294.99781512 280.36682353 -294.99781512 280.36682353 -301.8125 282.6875 C-302.54082031 282.93886719 -303.26914062 283.19023437 -304.01953125 283.44921875 C-306 284 -306 284 -309 284 C-309 284.66 -309 285.32 -309 286 C-358.16992126 301.86734135 -405.38451933 307.84386751 -457 307 C-457 306.34 -457 305.68 -457 305 C-458.26714844 305.02707031 -459.53429687 305.05414063 -460.83984375 305.08203125 C-466.16036171 305.07890827 -471.30431073 304.45281212 -476.5625 303.6875 C-477.45646484 303.56955078 -478.35042969 303.45160156 -479.27148438 303.33007812 C-484.90674139 302.52621922 -489.72462874 301.12632708 -495 299 C-496.98956785 298.60919203 -498.98806977 298.25149128 -501 298 C-501 297.34 -501 296.68 -501 296 C-502.051875 295.979375 -503.10375 295.95875 -504.1875 295.9375 C-517.39954785 294.27428121 -529.58273227 283.28039604 -537.98828125 273.61328125 C-546.44448298 262.62842891 -548.1141941 250.46893041 -547 237 C-545.2 226.2 -545.2 226.2 -542 223 C-542.03480469 224.08796875 -542.06960938 225.1759375 -542.10546875 226.296875 C-542.4290287 240.68297444 -540.7389832 255.28234358 -530.63671875 266.5 C-521.90596197 274.50145729 -512.19562851 279.65308116 -500.9375 283 C-500.09203613 283.25418701 -499.24657227 283.50837402 -498.37548828 283.77026367 C-488.74636156 286.54233808 -478.91743422 288.12665696 -469.02099609 289.61450195 C-467 290 -467 290 -465 291 C-463.57230168 291.09945088 -462.14012531 291.13829287 -460.70898438 291.14526367 C-459.82045776 291.15164352 -458.93193115 291.15802338 -458.01647949 291.16459656 C-456.56972839 291.16626579 -456.56972839 291.16626579 -455.09375 291.16796875 C-454.09927856 291.17129715 -453.10480713 291.17462555 -452.0802002 291.17805481 C-449.96851057 291.18312681 -447.8568129 291.18546305 -445.74511719 291.18530273 C-442.54087712 291.18747232 -439.33699083 291.20557808 -436.1328125 291.22460938 C-434.07812617 291.22754676 -432.02343821 291.22952924 -429.96875 291.23046875 C-429.02044312 291.23765427 -428.07213623 291.24483978 -427.09509277 291.25224304 C-420.82700517 291.23113802 -415.10304982 290.37798226 -409 289 C-407.22000812 288.69804105 -405.43785142 288.4080435 -403.65234375 288.140625 C-333.63177572 277.29193683 -265.35232633 248.62738229 -205 212 C-204.24831543 211.5467334 -203.49663086 211.0934668 -202.72216797 210.62646484 C-178.93215124 196.23524627 -156.32166574 179.82879229 -135 162 C-134.40912598 161.50822266 -133.81825195 161.01644531 -133.20947266 160.50976562 C-120.2016963 149.65122621 -107.94300473 138.01279492 -95.9375 126.0625 C-95.24744873 125.37712158 -94.55739746 124.69174316 -93.84643555 123.9855957 C-89.36132074 119.48629268 -85.14189609 114.81504007 -81 110 C-80.07426648 108.9519312 -79.14726428 107.90498105 -78.21875 106.859375 C-72.21540801 100.02545762 -66.58431129 92.96388177 -61.125 85.6875 C-60.50689453 84.86411133 -59.88878906 84.04072266 -59.25195312 83.19238281 C-55.7258257 78.44831191 -52.40004092 73.63569856 -49.25732422 68.62817383 C-48.84240723 68.09087646 -48.42749023 67.5535791 -48 67 C-47.34 67 -46.68 67 -46 67 C-46 66.01 -46 65.02 -46 64 C-46.91523438 63.86722656 -47.83046875 63.73445313 -48.7734375 63.59765625 C-50.55621094 63.33275391 -50.55621094 63.33275391 -52.375 63.0625 C-53.55835938 62.88847656 -54.74171875 62.71445313 -55.9609375 62.53515625 C-59 62 -59 62 -61 61 C-61 60.34 -61 59.68 -61 59 C-59.17053168 57.64461317 -57.28265361 56.36793422 -55.375 55.125 C-37.04751307 42.77851114 -20.35757137 26.56378533 -7 9 C-5.64598483 7.2707147 -4.29182657 5.54154143 -2.9375 3.8125 C-1.95687005 2.54279546 -0.97709698 1.27242533 0 0 Z " fill="#F19906" transform="translate(557,171)" />
  <path d="M0 0 C0.76425293 0.00237671 1.52850586 0.00475342 2.31591797 0.00720215 C14.19744714 0.06493372 25.33107646 0.92212014 36.75 4.4375 C37.77867187 4.74945313 38.80734375 5.06140625 39.8671875 5.3828125 C47.06176444 7.8081798 53.90578702 11.17316949 60.75 14.4375 C60.75 15.0975 60.75 15.7575 60.75 16.4375 C61.471875 16.69917969 62.19375 16.96085937 62.9375 17.23046875 C73.67941003 21.84053847 81.81278718 31.15958011 89.75 39.4375 C88.18668343 43.42954052 85.38956187 45.85364626 82.25 48.625 C81.44804199 49.34574707 81.44804199 49.34574707 80.62988281 50.08105469 C79.53351092 51.06551206 78.43487489 52.04745376 77.33398438 53.02685547 C75.04354549 55.06664521 72.77373876 57.1291309 70.5 59.1875 C69.29923828 60.25871094 69.29923828 60.25871094 68.07421875 61.3515625 C66.52006316 62.74638449 64.98091649 64.15810635 63.45703125 65.5859375 C62.74933594 66.23820312 62.04164063 66.89046875 61.3125 67.5625 C60.69503906 68.14257812 60.07757813 68.72265625 59.44140625 69.3203125 C58.88324219 69.68898438 58.32507813 70.05765625 57.75 70.4375 C54.6567132 69.4064044 53.46481524 68.24713698 51.25390625 65.95703125 C43.26968798 57.88986006 34.81070687 51.41839972 23.75 48.4375 C23.75 47.7775 23.75 47.1175 23.75 46.4375 C2.75143745 43.39565215 -19.2889956 44.05233471 -37.1875 56.4765625 C-52.48014623 68.2369399 -59.72908517 85.69555845 -62.25 104.4375 C-64.12697657 123.17907078 -59.75649621 140.305264 -50.25 156.4375 C-49.59 157.0975 -48.93 157.7575 -48.25 158.4375 C-48.25 159.4275 -48.25 160.4175 -48.25 161.4375 C-52.21 162.4275 -52.21 162.4275 -56.25 163.4375 C-56.25 164.0975 -56.25 164.7575 -56.25 165.4375 C-56.80945313 165.64503906 -57.36890625 165.85257813 -57.9453125 166.06640625 C-64.60798171 168.6264994 -70.8448619 171.72037612 -77.1484375 175.046875 C-80.25 176.4375 -80.25 176.4375 -84.25 176.4375 C-84.25 177.0975 -84.25 177.7575 -84.25 178.4375 C-87.74195856 180.03382391 -90.41263806 181.03909556 -94.25 180.4375 C-113.77164907 158.42779761 -115.71203083 123.05673644 -114.25 95.4375 C-113.58501741 89.24721494 -112.13863562 83.35924943 -110.25 77.4375 C-109.92854004 76.41076172 -109.92854004 76.41076172 -109.60058594 75.36328125 C-104.49736335 59.52620619 -96.43089744 46.67538036 -85.25 34.4375 C-84.59386719 33.69886719 -83.93773437 32.96023438 -83.26171875 32.19921875 C-62.06758199 9.55280709 -30.23651296 -0.24840661 0 0 Z " fill="#0A1923" transform="translate(352.25,243.5625)" />
  <path d="M0 0 C0.495 0.99 0.495 0.99 1 2 C1.99 2.33 2.98 2.66 4 3 C5.34666173 4.65591599 6.67823337 6.32414543 8 8 C9.64928556 9.44078593 11.33986347 10.83526838 13.0625 12.1875 C18.94133309 16.89373566 24.4781969 21.88405477 30 27 C24.76721463 42.34405294 7.22187764 51.33886632 -6 59 C-6.86882812 59.54914063 -7.73765625 60.09828125 -8.6328125 60.6640625 C-11.09368251 62.05287033 -13.340506 62.82625742 -16.0625 63.5625 C-18.48379037 64.22285192 -20.66927493 64.82679553 -22.89453125 65.9921875 C-42.15495716 75.21146372 -68.86093904 71.59932153 -89 68 C-89 67.34 -89 66.68 -89 66 C-90.485 65.814375 -90.485 65.814375 -92 65.625 C-99.32003715 64.55366348 -105.51612331 62.55910623 -112.0625 59.1875 C-113.06506836 58.6915332 -113.06506836 58.6915332 -114.08789062 58.18554688 C-118.72239248 55.83902067 -122.9128062 53.21554259 -127 50 C-127 49.34 -127 48.68 -127 48 C-126.19892822 47.65743164 -125.39785645 47.31486328 -124.57250977 46.96191406 C-121.55862201 45.67270394 -118.54497975 44.38292314 -115.53149414 43.09277344 C-114.23504037 42.53786229 -112.93849327 41.98316911 -111.6418457 41.42871094 C-96.81447846 35.13655452 -96.81447846 35.13655452 -82.359375 28.05078125 C-77.43599795 25.85808518 -72.38991273 25.80734113 -67.07421875 25.68359375 C-66.32662796 25.66281265 -65.57903717 25.64203156 -64.80879211 25.62062073 C-62.43511604 25.55555811 -60.06133513 25.4964429 -57.6875 25.4375 C-56.07225505 25.39427354 -54.45702047 25.35065796 -52.84179688 25.30664062 C-48.89463701 25.19992149 -44.94737233 25.09853381 -41 25 C-41 24.34 -41 23.68 -41 23 C-40.07960938 22.74347656 -39.15921875 22.48695313 -38.2109375 22.22265625 C-24.60711806 18.20075198 -14.08884465 11.52975847 -3.890625 1.65234375 C-2 0 -2 0 0 0 Z " fill="#0B1923" transform="translate(411,399)" />
  <path d="M0 0 C2.83838415 2.41462539 3.71313076 4.60099449 4.8125 8.125 C7.56804268 16.0353982 11.22751346 23.1844157 19 27 C23.29661583 28.47327209 27.62529143 29.77975488 32 31 C32 31.99 32 32.98 32 34 C31.20335937 34.17015625 30.40671875 34.3403125 29.5859375 34.515625 C19.34532797 36.85775954 13.2882463 40.55715154 7 49 C4.09234995 54.41424493 3.02646294 59.99821079 2 66 C1.34 66 0.68 66 0 66 C-0.14695312 65.23816406 -0.29390625 64.47632813 -0.4453125 63.69140625 C-3.08277604 51.54997925 -8.44128033 44.51582246 -18.3125 37.3125 C-22.37147509 35.33020984 -26.65248899 34.19028942 -31 33 C-31 32.34 -31 31.68 -31 31 C-30.39414062 30.85304687 -29.78828125 30.70609375 -29.1640625 30.5546875 C-18.9943635 27.83233731 -11.28242221 23.82244437 -5.47265625 14.8125 C-2.99674579 10.08397074 -1.41962802 5.13182304 0 0 Z " fill="#F29D09" transform="translate(587,112)" />
  <path d="M0 0 C1.9451 2.91765 2.45276317 4.62537285 3 8 C5.97 8.33 8.94 8.66 12 9 C12 9.66 12 10.32 12 11 C11.06027344 11.20302734 11.06027344 11.20302734 10.1015625 11.41015625 C5.29097767 12.48228668 5.29097767 12.48228668 1.95703125 15.7578125 C1.33633778 17.89503065 1.33633778 17.89503065 1 21 C-0.20628008 18.66785852 -1.1654738 16.50357861 -2 14 C-4.09719872 12.97718482 -4.09719872 12.97718482 -6.5625 12.3125 C-7.38878906 12.06113281 -8.21507812 11.80976563 -9.06640625 11.55078125 C-9.70449219 11.36902344 -10.34257812 11.18726563 -11 11 C-11 10.34 -11 9.68 -11 9 C-10.37351562 8.85304687 -9.74703125 8.70609375 -9.1015625 8.5546875 C-6.59282507 7.86616966 -4.3299834 7.16286191 -2 6 C-0.31963489 2.97115156 -0.31963489 2.97115156 0 0 Z " fill="#F1980E" transform="translate(519,126)" />
  <path d="M0 0 C2 3 2 3 2.6875 5.0625 C4.74759437 8.10359169 7.54943443 8.23320765 11 9 C11 9.66 11 10.32 11 11 C10.05125 11.309375 9.1025 11.61875 8.125 11.9375 C5.13919592 12.87394742 5.13919592 12.87394742 3 14 C2.26924352 16.3140622 1.59861742 18.64828869 1 21 C0.67 21 0.34 21 0 21 C-0.144375 19.906875 -0.28875 18.81375 -0.4375 17.6875 C-0.87563765 15.71531062 -0.87563765 15.71531062 -2 14 C-4.88294753 12.47156347 -7.82055924 11.68691621 -11 11 C-11 10.34 -11 9.68 -11 9 C-10.37351562 8.85304687 -9.74703125 8.70609375 -9.1015625 8.5546875 C-6.59282507 7.86616966 -4.3299834 7.16286191 -2 6 C-0.31963489 2.97115156 -0.31963489 2.97115156 0 0 Z " fill="#F29C1D" transform="translate(446,213)" />
  <path d="M0 0 C2 3 2 3 3 6 C6.51190809 7.22969878 6.51190809 7.22969878 10 8 C10 8.99 10 9.98 10 11 C7.69 11.33 5.38 11.66 3 12 C2.34 14.31 1.68 16.62 1 19 C-1 16 -1 16 -2 13 C-5.51190809 11.77030122 -5.51190809 11.77030122 -9 11 C-9 10.01 -9 9.02 -9 8 C-7.88625 7.79375 -6.7725 7.5875 -5.625 7.375 C-1.73400805 6.38371699 -1.73400805 6.38371699 -0.5625 2.875 C-0.376875 1.92625 -0.19125 0.9775 0 0 Z " fill="#F2A435" transform="translate(485,165)" />
  <path d="M0 0 C2 3 2 3 2.75 5.125 C3.93190284 7.35801575 3.93190284 7.35801575 7.125 7.75 C8.07375 7.8325 9.0225 7.915 10 8 C10 8.66 10 9.32 10 10 C8.88625 10.20625 7.7725 10.4125 6.625 10.625 C2.73400805 11.61628301 2.73400805 11.61628301 1.5625 15.125 C1.376875 16.07375 1.19125 17.0225 1 18 C-1 15 -1 15 -2 12 C-5.51190809 10.77030122 -5.51190809 10.77030122 -9 10 C-9 9.34 -9 8.68 -9 8 C-7.88625 7.79375 -6.7725 7.5875 -5.625 7.375 C-1.73400805 6.38371699 -1.73400805 6.38371699 -0.5625 2.875 C-0.376875 1.92625 -0.19125 0.9775 0 0 Z " fill="#F19D23" transform="translate(555,92)" />
  <path d="M0 0 C0.66 0 1.32 0 2 0 C2.66 2.31 3.32 4.62 4 7 C6.97 7.495 6.97 7.495 10 8 C10 8.66 10 9.32 10 10 C9.071875 10.020625 8.14375 10.04125 7.1875 10.0625 C3.99303786 10.62844359 3.99303786 10.62844359 2.93359375 12.625 C2.20025229 14.38218533 1.59224075 16.19037549 1 18 C0.71125 17.401875 0.4225 16.80375 0.125 16.1875 C-1.04742026 13.80672208 -1.04742026 13.80672208 -3 11 C-6.06556598 10.26656572 -6.06556598 10.26656572 -9 10 C-9 9.34 -9 8.68 -9 8 C-7.88625 7.79375 -6.7725 7.5875 -5.625 7.375 C-1.73400805 6.38371699 -1.73400805 6.38371699 -0.5625 2.875 C-0.376875 1.92625 -0.19125 0.9775 0 0 Z " fill="#F19C25" transform="translate(580,217)" />
  <path d="M0 0 C1.05416799 3.38955552 1.00713194 6.34267292 0.875 9.875 C0.79120105 17.25768726 2.20018284 23.85429735 4 31 C3.34 31.33 2.68 31.66 2 32 C1.731875 31.071875 1.46375 30.14375 1.1875 29.1875 C0.28739122 26.06344895 0.28739122 26.06344895 -1.51953125 24.546875 C-3.81958593 22.14365164 -3.80243547 19.91094677 -4.078125 16.6875 C-3.91511698 11.08002395 -2.51684004 5.03368008 0 0 Z " fill="#F1981D" transform="translate(14,394)" />
  <path d="M0 0 C3.96 0.33 7.92 0.66 12 1 C12 1.33 12 1.66 12 2 C4.81629059 2.86701212 -2.24492005 3.13504331 -9.4765625 3.09765625 C-10.52782318 3.0962413 -11.57908386 3.09482635 -12.66220093 3.09336853 C-15.98316428 3.08782087 -19.30405741 3.07527842 -22.625 3.0625 C-24.8919261 3.05747823 -27.15885327 3.05291651 -29.42578125 3.04882812 C-34.95054434 3.03786865 -40.47526715 3.02118357 -46 3 C-46 2.67 -46 2.34 -46 2 C-30.82 2 -15.64 2 0 2 C0 1.34 0 0.68 0 0 Z " fill="#F4AE61" transform="translate(146,475)" />
  <path d="M0 0 C7.75493514 -0.09928082 15.31068715 -0.06059488 23 1 C23 1.66 23 2.32 23 3 C28.61 3 34.22 3 40 3 C40 3.33 40 3.66 40 4 C26.3265692 4.39274748 13.46503529 3.40651694 0 1 C0 0.67 0 0.34 0 0 Z " fill="#595C5F" transform="translate(322,466)" />
  <path d="M0 0 C0 0.33 0 0.66 0 1 C-3.20636973 1.67635064 -6.41536689 2.33932448 -9.625 3 C-10.98044922 3.28617187 -10.98044922 3.28617187 -12.36328125 3.578125 C-16.98203556 4.52210398 -21.25647172 5.25214768 -26 5 C-24.68 4.67 -23.36 4.34 -22 4 C-22 3.34 -22 2.68 -22 2 C-19.46045692 1.46615306 -16.9193065 0.94769806 -14.375 0.4375 C-13.66214844 0.28603516 -12.94929687 0.13457031 -12.21484375 -0.02148438 C-7.83982036 -0.8844477 -4.41938826 -1.05256724 0 0 Z " fill="#F29B36" transform="translate(201,469)" />
  <path d="M0 0 C-3.74618038 2.23405028 -7.76957079 2.90962217 -12 3.6875 C-13.06734375 3.90116211 -13.06734375 3.90116211 -14.15625 4.11914062 C-17.68642913 4.78104921 -20.58836758 5.32378445 -24 4 C-21.18723423 1.18723423 -18.02782619 0.99968523 -14.25 0.3125 C-13.54617187 0.17005859 -12.84234375 0.02761719 -12.1171875 -0.11914062 C-7.7936718 -0.92678622 -4.35403673 -1.02004949 0 0 Z " fill="#404449" transform="translate(179,450)" />
  <path d="M0 0 C0.5878125 0.22816406 1.175625 0.45632813 1.78125 0.69140625 C0.04029321 2.51340758 -1.71052132 4.323702 -3.46875 6.12890625 C-4.20544922 6.90331055 -4.20544922 6.90331055 -4.95703125 7.69335938 C-9.52039195 12.34798729 -9.52039195 12.34798729 -13.21875 12.69140625 C-5.05166771 -0.70260871 -5.05166771 -0.70260871 0 0 Z " fill="#262D33" transform="translate(52.21875,272.30859375)" />
  <path d="M0 0 C0.66 0.33 1.32 0.66 2 1 C1.67 1.66 1.34 2.32 1 3 C-0.32 3 -1.64 3 -3 3 C-3 3.66 -3 4.32 -3 5 C-4.32 5.33 -5.64 5.66 -7 6 C-6.67 6.99 -6.34 7.98 -6 9 C-11.75 8.125 -11.75 8.125 -14 7 C-14 6.34 -14 5.68 -14 5 C-13.32453125 4.80664062 -12.6490625 4.61328125 -11.953125 4.4140625 C-10.61507812 4.02347656 -10.61507812 4.02347656 -9.25 3.625 C-8.36828125 3.36976563 -7.4865625 3.11453125 -6.578125 2.8515625 C-4.00576767 2.08115206 -4.00576767 2.08115206 -1.796875 0.8359375 C-1.20390625 0.56007812 -0.6109375 0.28421875 0 0 Z " fill="#F4AE46" transform="translate(570,138)" />
  <path d="M0 0 C1.9451 2.91765 2.45276317 4.62537285 3 8 C5.97 8.33 8.94 8.66 12 9 C12 9.66 12 10.32 12 11 C7.545 11.495 7.545 11.495 3 12 C2.525625 10.88625 2.05125 9.7725 1.5625 8.625 C0.74693537 6.73289006 -0.07856355 4.84287291 -1 3 C-0.67 2.01 -0.34 1.02 0 0 Z " fill="#F2A444" transform="translate(519,126)" />
  <path d="M0 0 C0.99 0.66 1.98 1.32 3 2 C1.5625 4 1.5625 4 -1 6 C-4.02824418 6.35442445 -6.96485939 6.23347235 -10 6 C-10 5.34 -10 4.68 -10 4 C-9.36191406 3.79503906 -8.72382813 3.59007812 -8.06640625 3.37890625 C-7.24011719 3.10949219 -6.41382813 2.84007812 -5.5625 2.5625 C-4.73878906 2.29566406 -3.91507812 2.02882812 -3.06640625 1.75390625 C-1.03780412 1.17844506 -1.03780412 1.17844506 0 0 Z " fill="#F3A53A" transform="translate(445,218)" />
  <path d="M0 0 C1.25180279 4.21919103 0.67252421 7.96088565 0.0625 12.25 C-0.03740234 12.99507812 -0.13730469 13.74015625 -0.24023438 14.5078125 C-0.48680156 16.33945442 -0.74250391 18.16986251 -1 20 C-1.33 20 -1.66 20 -2 20 C-2.24927162 17.41718562 -2.47499275 14.83587772 -2.6875 12.25 C-2.76033203 11.52039063 -2.83316406 10.79078125 -2.90820312 10.0390625 C-3.17234629 6.62073925 -3.28508387 4.48441691 -1.51953125 1.484375 C-1.01808594 0.99453125 -0.51664063 0.5046875 0 0 Z " fill="#F19723" transform="translate(557,171)" />
  <path d="M0 0 C0.66 0.33 1.32 0.66 2 1 C-2.62 5.62 -7.24 10.24 -12 15 C-12 10.39852874 -9.10228152 8.19311408 -6 5 C-4.05341967 3.24193983 -2.06456557 1.62215867 0 0 Z " fill="#CFD1D2" transform="translate(315,299)" />
  <path d="M0 0 C-4.77105802 2.67179249 -9.53911054 4 -15 4 C-15 3.34 -15 2.68 -15 2 C-13.44240657 1.46467177 -11.87861955 0.94734622 -10.3125 0.4375 C-9.44238281 0.14746094 -8.57226562 -0.14257812 -7.67578125 -0.44140625 C-4.75368926 -1.05141961 -2.85599447 -0.77703633 0 0 Z " fill="#F39F3F" transform="translate(229,462)" />
  <path d="M0 0 C3.66881155 0.70554068 6.70450534 2.27735506 10 4 C10 4.66 10 5.32 10 6 C10.99 6.33 11.98 6.66 13 7 C7.71862571 6.48474397 4.42778844 4.74522883 0 2 C0 1.34 0 0.68 0 0 Z " fill="#3A3F43" transform="translate(293,453)" />
  <path d="M0 0 C1.16306443 3.54950034 0.92365049 6.55823948 0.5625 10.25 C0.40974609 11.86648438 0.40974609 11.86648438 0.25390625 13.515625 C0.17011719 14.33546875 0.08632812 15.1553125 0 16 C-0.33 14.68 -0.66 13.36 -1 12 C-1.66 12 -2.32 12 -3 12 C-2.69106068 10.3743193 -2.3777305 8.74947252 -2.0625 7.125 C-1.88847656 6.22007812 -1.71445313 5.31515625 -1.53515625 4.3828125 C-1 2 -1 2 0 0 Z " fill="#EF8E28" transform="translate(14,394)" />
  <path d="M0 0 C1 2 1 2 1 6 C-3.455 5.01 -3.455 5.01 -8 4 C-8 3.34 -8 2.68 -8 2 C-5.36 1.34 -2.72 0.68 0 0 Z " fill="#F4AE55" transform="translate(516,133)" />
  <path d="M0 0 C3.21043882 1.38188453 5.04936365 2.92421903 7.25 5.625 C8.03117188 6.57246094 8.03117188 6.57246094 8.828125 7.5390625 C9.40820312 8.26222656 9.40820312 8.26222656 10 9 C7 9 7 9 5.17578125 7.5390625 C4.56089844 6.90742188 3.94601563 6.27578125 3.3125 5.625 C2.68988281 4.99851562 2.06726563 4.37203125 1.42578125 3.7265625 C0 2 0 2 0 0 Z " fill="#24292D" transform="translate(175,302)" />
  <path d="M0 0 C-3.75467691 3.05936637 -7.08113061 5 -12 5 C-12 4.34 -12 3.68 -12 3 C-4.71428571 -0.42857143 -4.71428571 -0.42857143 0 0 Z " fill="#F09F3F" transform="translate(304,434)" />
  <path d="M0 0 C-3.00440021 2.00293347 -4.70993945 2.49271626 -8.1875 3.125 C-9.53908203 3.37636719 -9.53908203 3.37636719 -10.91796875 3.6328125 C-11.60503906 3.75398438 -12.29210937 3.87515625 -13 4 C-13 3.34 -13 2.68 -13 2 C-8.49646738 0.24252386 -4.82360189 -0.19294408 0 0 Z " fill="#F2A247" transform="translate(242,458)" />
  <path d="M0 0 C0 0.33 0 0.66 0 1 C-1.58086048 1.36504603 -3.16483907 1.71660506 -4.75 2.0625 C-5.63171875 2.25972656 -6.5134375 2.45695312 -7.421875 2.66015625 C-9.98679028 2.99825872 -11.57091639 2.81158635 -14 2 C-13.01 2 -12.02 2 -11 2 C-11 1.34 -11 0.68 -11 0 C-7.01803543 -1.05404945 -4.01804691 -0.84098656 0 0 Z " fill="#F3A244" transform="translate(201,469)" />
  <path d="M0 0 C4.71403788 0.47939368 8.66579301 0.96834048 13 3 C12.01 3.66 11.02 4.32 10 5 C6.8125 4.125 6.8125 4.125 4 3 C4 2.34 4 1.68 4 1 C2.68 0.67 1.36 0.34 0 0 Z " fill="#F2A13D" transform="translate(46,452)" />
  <path d="M0 0 C2.31 0.33 4.62 0.66 7 1 C7 1.66 7 2.32 7 3 C4.36 3.66 1.72 4.32 -1 5 C-0.67 3.35 -0.34 1.7 0 0 Z " fill="#F3AB50" transform="translate(450,221)" />
  <path d="M0 0 C0.66 0 1.32 0 2 0 C1.67 3.3 1.34 6.6 1 10 C0.34 10 -0.32 10 -1 10 C-1.33 7.69 -1.66 5.38 -2 3 C-1.34 3 -0.68 3 0 3 C0 2.01 0 1.02 0 0 Z " fill="#F29D31" transform="translate(588,168)" />
  <path d="M0 0 C2.97 0.33 5.94 0.66 9 1 C9 1.33 9 1.66 9 2 C4.32798795 3.20568053 -0.21496292 3.09382426 -5 3 C-5 2.67 -5 2.34 -5 2 C-3.35 1.67 -1.7 1.34 0 1 C0 0.67 0 0.34 0 0 Z " fill="#53585B" transform="translate(368,466)" />
  <path d="M0 0 C0.33 0.99 0.66 1.98 1 3 C-1.3125 5.0625 -1.3125 5.0625 -4 7 C-4.99 6.67 -5.98 6.34 -7 6 C-4.69 4.02 -2.38 2.04 0 0 Z " fill="#F3A227" transform="translate(427,329)" />
  <path d="M0 0 C-1.28497537 2.56995074 -2.49912373 2.90434463 -5.0625 4.125 C-5.79597656 4.47820312 -6.52945312 4.83140625 -7.28515625 5.1953125 C-7.85105469 5.46085937 -8.41695313 5.72640625 -9 6 C-9.66 5.34 -10.32 4.68 -11 4 C-9.73308493 3.32591692 -8.46129251 2.66099503 -7.1875 2 C-6.47980469 1.62875 -5.77210938 1.2575 -5.04296875 0.875 C-3 0 -3 0 0 0 Z " fill="#45494C" transform="translate(330,428)" />
  <path d="M0 0 C0.33 0.66 0.66 1.32 1 2 C1.61875 2.28875 2.2375 2.5775 2.875 2.875 C5.36796335 4.19480413 6.45147781 5.67721672 8 8 C5 8 5 8 2.3125 5.6875 C0 3 0 3 0 0 Z " fill="#252A2E" transform="translate(40,429)" />
  <path d="M0 0 C0.33 0.99 0.66 1.98 1 3 C-1.3125 5.5 -1.3125 5.5 -4 8 C-4.99 8 -5.98 8 -7 8 C-4.69 5.36 -2.38 2.72 0 0 Z " fill="#F3A22B" transform="translate(479,277)" />
  <path d="M0 0 C-1.63412443 1.70840281 -2.86906094 2.93453047 -5 4 C-7.125 3.5625 -7.125 3.5625 -9 3 C-9 2.34 -9 1.68 -9 1 C-2.25 -1.125 -2.25 -1.125 0 0 Z " fill="#F6AB4F" transform="translate(555,99)" />
  <path d="M0 0 C6.75 0.875 6.75 0.875 9 2 C9 2.66 9 3.32 9 4 C5.17902761 3.46930939 2.93828597 2.50298434 0 0 Z " fill="#2F3337" transform="translate(404,256)" />
  <path d="M0 0 C0 0.66 0 1.32 0 2 C-1.96466413 3.06775224 -3.96855359 4.06553465 -6 5 C-6.66 4.67 -7.32 4.34 -8 4 C-6.27302455 0.54604909 -3.70696841 0 0 0 Z " fill="#F0A245" transform="translate(317,427)" />
  <path d="M0 0 C0.6875 1.8125 0.6875 1.8125 1 4 C-0.4375 5.75 -0.4375 5.75 -2 7 C-2.99 6.67 -3.98 6.34 -5 6 C-3.35 4.02 -1.7 2.04 0 0 Z " fill="#F39F23" transform="translate(494,259)" />
  <path d="M0 0 C0.33 0.99 0.66 1.98 1 3 C-0.98 4.32 -2.96 5.64 -5 7 C-5.66 6.67 -6.32 6.34 -7 6 C-4.69 4.02 -2.38 2.04 0 0 Z " fill="#F4A430" transform="translate(521,211)" />
  <path d="M0 0 C1.37432457 3.81756824 0.67975039 7.07255329 0 11 C-0.33 11 -0.66 11 -1 11 C-1 9.02 -1 7.04 -1 5 C-1.66 4.67 -2.32 4.34 -3 4 C-2.01 2.68 -1.02 1.36 0 0 Z " fill="#F39C3D" transform="translate(557,171)" />
</svg>