<?xml version="1.0" encoding="UTF-8"?>
<svg version="1.1" xmlns="http://www.w3.org/2000/svg" width="710" height="439">
<path d="M0 0 C234.3 0 468.6 0 710 0 C710 144.87 710 289.74 710 439 C475.7 439 241.4 439 0 439 C0 294.13 0 149.26 0 0 Z " fill="#FEFEFE" transform="translate(0,0)"/>
<path d="M0 0 C15.51 0 31.02 0 47 0 C47 70.29 47 140.58 47 213 C31.49 213 15.98 213 0 213 C0 182.97 0 152.94 0 122 C-33.66 122 -67.32 122 -102 122 C-102 152.03 -102 182.06 -102 213 C-116.52 213 -131.04 213 -146 213 C-146.43054604 194.16160602 -146.77980954 175.3272528 -146.98443127 156.48517132 C-147.0820082 147.73448557 -147.21476692 138.98709434 -147.43334961 130.23852539 C-147.6240012 122.60416819 -147.74559349 114.97219756 -147.7876814 107.33552581 C-147.81225542 103.2982307 -147.86903895 99.26775574 -148.00887108 95.23267174 C-148.93277419 67.51344531 -148.93277419 67.51344531 -139.31655598 57.18913746 C-136.0704959 54.15659738 -132.70278834 51.38095361 -129.15633583 48.70823097 C-126.29940559 46.44499504 -124.22346581 44.00405894 -122 41.125 C-118.39457962 36.49358825 -114.64422859 32.02451908 -110.80273438 27.58837891 C-108.60837808 25.02370473 -106.577256 22.43922489 -104.73828125 19.61328125 C-104.16464844 18.75089844 -103.59101562 17.88851562 -103 17 C-102.67 17 -102.34 17 -102 17 C-102 37.79 -102 58.58 -102 80 C-68.34 80 -34.68 80 0 80 C0 53.6 0 27.2 0 0 Z " fill="#081721" transform="translate(637,182)"/>
<path d="M0 0 C2.31017043 0.01610385 4.61859244 0.00003679 6.92871094 -0.01904297 C37.48184555 -0.06273065 64.3640604 11.76762525 86.18652344 32.76611328 C86.71729492 33.26594727 87.24806641 33.76578125 87.79492188 34.28076172 C89.24121094 35.72705078 89.24121094 35.72705078 91.31152344 38.39111328 C91.00377 41.71706031 89.82116583 43.1996889 87.31933594 45.30908203 C86.701875 45.83695313 86.08441406 46.36482422 85.44824219 46.90869141 C84.784375 47.45976562 84.12050781 48.01083984 83.43652344 48.57861328 C82.75976562 49.15160156 82.08300781 49.72458984 81.38574219 50.31494141 C79.36915961 52.01702859 77.34193165 53.70555865 75.31152344 55.39111328 C74.75948242 55.85340332 74.20744141 56.31569336 73.63867188 56.79199219 C68.34685528 61.223337 62.99618253 65.47501479 57.31152344 69.39111328 C56.72886719 68.76205078 56.14621094 68.13298828 55.54589844 67.48486328 C40.69407894 51.9791901 23.41108117 44.61049087 1.93652344 44.07861328 C-14.45393381 44.37935562 -30.80759651 49.64347674 -42.68847656 61.39111328 C-57.85422005 78.8054843 -61.93727953 98.86789994 -60.68847656 121.39111328 C-58.98419267 138.92960526 -52.14520281 154.96208658 -38.42675781 166.47705078 C-21.81968151 178.08542081 -3.4547408 181.70242259 16.56347656 179.09814453 C30.81750461 176.56591032 41.9881032 169.20718103 52.53417969 159.74658203 C54.79617163 157.8281838 56.60170549 156.51533032 59.31152344 155.39111328 C60.24351562 156.20193359 61.17550781 157.01275391 62.13574219 157.84814453 C69.07901902 163.88079764 76.03387278 169.89500816 83.09741211 175.78686523 C85.97480259 178.20092733 88.69948292 180.69179694 91.31152344 183.39111328 C90.13318163 184.93979109 88.94327743 186.47967266 87.74902344 188.01611328 C86.75708984 189.30388672 86.75708984 189.30388672 85.74511719 190.61767578 C79.51463504 197.71822525 74.17904738 200.60720117 64.99902344 202.95361328 C63.91322998 203.24389404 62.82743652 203.5341748 61.70874023 203.83325195 C49.69776078 206.95850071 37.5404046 209.30251185 25.31152344 211.39111328 C24.57305176 211.51856934 23.83458008 211.64602539 23.07373047 211.77734375 C1.82914308 215.36520004 -20.40272429 215.75665089 -41.68847656 212.39111328 C-42.92742676 212.20572998 -42.92742676 212.20572998 -44.19140625 212.01660156 C-64.8402761 208.83480895 -80.20362031 198.23960861 -92.68847656 181.39111328 C-111.132979 154.23267268 -117.20480097 123.51965981 -112.43457031 91.24658203 C-106.86209295 62.45058647 -91.01149368 36.58798372 -66.64160156 19.92626953 C-46.2282267 6.56766712 -24.38698848 -0.20141731 0 0 Z " fill="#081720" transform="translate(137.6884765625,173.60888671875)"/>
<path d="M0 0 C1.09843795 3.29531385 0.92595388 4.87025536 0.46875 8.2734375 C0.32083008 9.3876709 0.17291016 10.5019043 0.02050781 11.64990234 C-0.23714355 13.49382568 -0.23714355 13.49382568 -0.5 15.375 C-0.76151855 17.2943335 -0.76151855 17.2943335 -1.02832031 19.25244141 C-3.73442484 38.87564019 -6.9000865 58.43604337 -10 78 C-13.1807469 76.74244185 -16.26313313 75.42552552 -19.3125 73.875 C-20.00988281 73.52179688 -20.70726562 73.16859375 -21.42578125 72.8046875 C-21.94527344 72.53914063 -22.46476563 72.27359375 -23 72 C-23.43828125 72.81339844 -23.8765625 73.62679687 -24.328125 74.46484375 C-32.83474985 89.8355541 -43.19831635 103.70481971 -54.46337891 117.15478516 C-55.85210608 118.82240511 -57.21620205 120.5065952 -58.57421875 122.19921875 C-65.58699269 130.79878588 -73.41372021 138.5975502 -81.25 146.4375 C-81.81762054 147.00611755 -82.38524109 147.57473511 -82.97006226 148.1605835 C-89.13264708 154.32194481 -95.33809168 160.37374288 -102 166 C-103.09469556 166.9494317 -104.18847354 167.89992258 -105.28125 168.8515625 C-134.14459558 193.77960368 -164.94265759 215.95127634 -198 235 C-198.92893066 235.54043945 -199.85786133 236.08087891 -200.81494141 236.63769531 C-263.88249154 273.22125191 -342.29333323 305.66590717 -416.18359375 306.23828125 C-417.22897812 306.2480751 -418.27436249 306.25786896 -419.35142517 306.26795959 C-463.28698332 306.59515769 -463.28698332 306.59515769 -483 302 C-484.41466553 301.67854004 -484.41466553 301.67854004 -485.85791016 301.35058594 C-506.13068349 296.57684291 -527.79633848 287.75157923 -540.05078125 270.03515625 C-545.08796061 261.76500464 -547.39307739 254.52719485 -547.375 244.875 C-547.37628906 244.14869385 -547.37757813 243.4223877 -547.37890625 242.67407227 C-547.23843266 235.34949211 -545.44265302 228.88086633 -543 222 C-542.67 222 -542.34 222 -542 222 C-542.03480469 223.66675781 -542.03480469 223.66675781 -542.0703125 225.3671875 C-542.30618862 241.00718251 -540.57803095 255.10646524 -529.21484375 267.06640625 C-515.30612437 279.20893904 -497.87280723 284.7039049 -480 288 C-479.07735352 288.17877686 -478.15470703 288.35755371 -477.20410156 288.54174805 C-466.57112729 290.34742333 -455.97658459 290.33777861 -445.21728516 290.31567383 C-442.03382448 290.31253337 -438.85131396 290.33597753 -435.66796875 290.36132812 C-417.21424281 290.41930702 -399.39604771 288.2939752 -381.375 284.3125 C-380.21025146 284.05758789 -379.04550293 283.80267578 -377.84545898 283.54003906 C-330.8731435 272.987579 -285.7289948 255.00989314 -243 233 C-241.69530762 232.33315186 -241.69530762 232.33315186 -240.36425781 231.65283203 C-186.81213525 204.25428454 -138.61505868 168.5449603 -96 126.125 C-95.30600098 125.43567383 -94.61200195 124.74634766 -93.89697266 124.03613281 C-89.39495178 119.51997857 -85.15336112 114.83685718 -81 110 C-80.0503856 108.91717316 -79.09991305 107.83509807 -78.1484375 106.75390625 C-66.3667782 93.24805046 -55.71155085 79.0605766 -46 64 C-46.99580078 63.81824219 -46.99580078 63.81824219 -48.01171875 63.6328125 C-52.53424459 62.77452292 -56.79938524 61.96028689 -61 60 C-57.39255582 57.08221426 -53.71149527 54.28362145 -50 51.5 C-42.91599236 46.09476775 -36.40686356 40.1847244 -30 34 C-29.41009277 33.43200684 -28.82018555 32.86401367 -28.21240234 32.27880859 C-20.59147692 24.90247024 -13.49725124 17.39763303 -7 9 C-6.30648437 8.11570312 -5.61296875 7.23140625 -4.8984375 6.3203125 C-3.25644528 4.22039417 -1.62350994 2.11421712 0 0 Z " fill="#F19702" transform="translate(567,101)"/>
<path d="M0 0 C0.76945953 -0.00073517 1.53891907 -0.00147034 2.33169556 -0.00222778 C31.36668418 0.07038697 58.5471639 8.3726138 80.25 28.4375 C83.72763077 31.97603909 87.0116781 35.67936071 90.25 39.4375 C88.75774056 43.03505519 86.73741067 45.02601747 83.8125 47.5625 C80.05889134 50.85096407 76.35291334 54.17586458 72.6875 57.5625 C68.05928948 61.78195118 63.26949937 65.69456466 58.25 69.4375 C55.05154329 68.04777754 53.18581864 66.46290776 50.875 63.875 C37.82453514 50.63190835 20.74550961 44.51199136 2.3125 44.125 C-15.54162625 44.28378176 -31.91656198 50.88789789 -44.75 63.4375 C-54.45648862 74.94216609 -61.13021382 90.30438738 -61.75 105.4375 C-61.8015625 106.58476562 -61.853125 107.73203125 -61.90625 108.9140625 C-62.43794759 126.52791262 -59.18926789 144.4841073 -47.75 158.4375 C-47.75 159.0975 -47.75 159.7575 -47.75 160.4375 C-51.94301403 162.48658694 -56.13825117 164.53103018 -60.33544922 166.5715332 C-61.75759119 167.26367651 -63.17915942 167.95700016 -64.60009766 168.65161133 C-88.71649368 180.4375 -88.71649368 180.4375 -93.75 180.4375 C-100.85962619 168.23186724 -106.79402143 156.51262295 -110.5 142.8125 C-110.71108398 142.03672607 -110.92216797 141.26095215 -111.13964844 140.46166992 C-116.26186637 120.53842898 -115.97016613 97.03221492 -109.75 77.4375 C-109.54101074 76.7583252 -109.33202148 76.07915039 -109.11669922 75.37939453 C-104.33960379 60.26087153 -96.34011307 47.21459597 -85.75 35.4375 C-85.06550781 34.67050781 -84.38101562 33.90351563 -83.67578125 33.11328125 C-62.10475519 10.26633498 -30.76359261 -0.01279117 0 0 Z " fill="#081720" transform="translate(361.75,173.5625)"/>
<path d="M0 0 C8.61102106 3.8248954 15.73517736 11.57160547 22.62890625 17.84765625 C26.04348111 20.94721267 29.51874107 23.97577785 33 27 C18.01255882 48.64852615 -4.37274725 62.46273258 -30 68 C-60.51786274 73.3782739 -93.76988525 70.32492287 -120.0234375 52.63671875 C-121.69645677 51.44410461 -123.35022894 50.22457233 -125 49 C-122.82732763 46.82732763 -121.29951641 46.17235884 -118.46875 45.0390625 C-117.52652588 44.65540527 -116.58430176 44.27174805 -115.61352539 43.87646484 C-113.49555256 43.02515702 -111.37755014 42.17392281 -109.25952148 41.32275391 C-103.53918468 38.98902622 -97.97904737 36.53858017 -92.50390625 33.671875 C-78.9402359 26.65806351 -68.97434585 24.0072955 -53.7265625 24.81640625 C-34.68694549 25.77816233 -18.07040032 15.96585326 -4 4 C-2.64783556 2.68576757 -1.30650101 1.35963622 0 0 Z " fill="#081720" transform="translate(419,329)"/>
<path d="M0 0 C0.66 0 1.32 0 2 0 C2.20753906 0.89460938 2.41507813 1.78921875 2.62890625 2.7109375 C5.4588784 13.81769012 9.45631207 22.65606149 19.578125 28.81640625 C23.56588298 30.76526216 27.6920831 31.97473377 32 33 C32 33.66 32 34.32 32 35 C31.39414062 35.14695313 30.78828125 35.29390625 30.1640625 35.4453125 C20.44223165 38.04777183 12.47445246 41.75942709 7.1796875 50.62890625 C4.58958302 55.83484473 2.92593024 61.25923253 2 67 C1.34 67 0.68 67 0 67 C-0.23074219 66.154375 -0.46148438 65.30875 -0.69921875 64.4375 C-3.55129241 54.51724378 -6.83606497 45.5976746 -16 40 C-20.88035222 37.70493713 -25.93402289 35.83861718 -31 34 C-31 33.67 -31 33.34 -31 33 C-30.39414062 32.85304687 -29.78828125 32.70609375 -29.1640625 32.5546875 C-19.96387232 30.09186736 -11.73094818 26.36092225 -6.24609375 18.28125 C-3.11100112 12.54177007 -1.16762783 6.41617271 0 0 Z " fill="#F29A02" transform="translate(597,40)"/>
<path d="M0 0 C15.51 0 31.02 0 47 0 C47 69.63 47 139.26 47 211 C45.35 211 43.7 211 42 211 C42.66 210.67 43.32 210.34 44 210 C44 141.69 44 73.38 44 3 C30.47 3 16.94 3 3 3 C3 28.41 3 53.82 3 80 C2.01 80 1.02 80 0 80 C0 53.6 0 27.2 0 0 Z " fill="#132028" transform="translate(637,182)"/>
<path d="M0 0 C0.33 0 0.66 0 1 0 C1.33 69.63 1.66 139.26 2 211 C-13.18 211 -28.36 211 -44 211 C-44 180.97 -44 150.94 -44 120 C-43.67 120 -43.34 120 -43 120 C-43 149.37 -43 178.74 -43 209 C-28.81 209 -14.62 209 0 209 C0 140.03 0 71.06 0 0 Z " fill="#000106" transform="translate(682,184)"/>
<path d="M0 0 C0.33 0 0.66 0 1 0 C0.96519531 1.66675781 0.96519531 1.66675781 0.9296875 3.3671875 C0.76355111 14.55370439 1.15390158 24.01832115 6.29296875 34.1875 C6.52628906 34.785625 6.75960938 35.38375 7 36 C6.67 36.66 6.34 37.32 6 38 C5.05125 37.649375 4.1025 37.29875 3.125 36.9375 C0.12939828 35.64973223 0.12939828 35.64973223 -2 37 C-3.83631534 32.29903273 -4.38414751 28.00311564 -4.375 23 C-4.37628906 22.26467041 -4.37757812 21.52934082 -4.37890625 20.77172852 C-4.23961181 13.41998963 -2.46034627 6.93070758 0 0 Z " fill="#F19108" transform="translate(24,323)"/>
<path d="M0 0 C2 4 2 4 2.625 6.125 C4.9360775 9.27646932 8.26665308 9.27741673 12 10 C9 12 9 12 6.5 12.625 C3.0653047 14.51408241 2.64589946 16.70168234 1.48046875 20.3203125 C1.32191406 20.87460938 1.16335938 21.42890625 1 22 C-0.64826111 19.03312999 -1.44271087 16.34373475 -2 13 C-4.64 12.34 -7.28 11.68 -10 11 C-6 9 -6 9 -3.875 8.3125 C-0.9056345 6.23394415 -0.7570695 3.40681274 0 0 Z " fill="#EF890E" transform="translate(529,55)"/>
<path d="M0 0 C2 3 2 3 3.1875 5.5625 C5.6558737 8.88203704 8.04521616 9.17919581 12 10 C12 10.33 12 10.66 12 11 C10.741875 11.165 9.48375 11.33 8.1875 11.5 C5.41577045 12.15736595 4.33451746 12.46607963 2.80078125 14.9140625 C2.07007471 16.93152544 1.4673471 18.90667445 1 21 C-1 17 -1 17 -1.6875 14.875 C-3.76605585 11.9056345 -6.59318726 11.7570695 -10 11 C-7.08235 9.0549 -5.37462715 8.54723683 -2 8 C-1.34 5.36 -0.68 2.72 0 0 Z " fill="#F0950C" transform="translate(456,142)"/>
<path d="M0 0 C1.20628008 2.33214148 2.1654738 4.49642139 3 7 C6.51190809 8.22969878 6.51190809 8.22969878 10 9 C10 9.66 10 10.32 10 11 C8.329375 11.2784375 8.329375 11.2784375 6.625 11.5625 C5.42875 12.036875 4.2325 12.51125 3 13 C1.45913678 16.51400668 1.45913678 16.51400668 1 20 C-0.41377341 17.36095629 -1.37240135 14.92879371 -2 12 C-4.31 11.67 -6.62 11.34 -9 11 C-9 10.34 -9 9.68 -9 9 C-7.329375 8.7215625 -7.329375 8.7215625 -5.625 8.4375 C-4.42875 7.963125 -3.2325 7.48875 -2 7 C-0.45913678 3.48599332 -0.45913678 3.48599332 0 0 Z " fill="#EF8F16" transform="translate(495,94)"/>
<path d="M0 0 C0.66 0 1.32 0 2 0 C2.185625 1.11375 2.37125 2.2275 2.5625 3.375 C3.036875 4.57125 3.51125 5.7675 4 7 C7.51400668 8.54086322 7.51400668 8.54086322 11 9 C8.66785852 10.20628008 6.50357861 11.1654738 4 12 C2.77030122 15.51190809 2.77030122 15.51190809 2 19 C1.34 19 0.68 19 0 19 C-0.185625 17.88625 -0.37125 16.7725 -0.5625 15.625 C-1.036875 14.42875 -1.51125 13.2325 -2 12 C-5.51400668 10.45913678 -5.51400668 10.45913678 -9 10 C-6.38058783 8.25372522 -4.96175123 7.61277612 -2 7 C-1.34 4.69 -0.68 2.38 0 0 Z " fill="#F0910E" transform="translate(590,146)"/>
<path d="M0 0 C0.2475 0.5775 0.495 1.155 0.75 1.75 C2.97636479 5.75745663 5.80471463 8.20202055 10 10 C8.88625 10.37125 7.7725 10.7425 6.625 11.125 C3.38621238 12.4794021 3.10727559 12.76212803 1.5625 16.1875 C1.376875 17.115625 1.19125 18.04375 1 19 C-1 16 -1 16 -1.75 13.9375 C-3.58137115 11.09887472 -5.83025969 10.82688878 -9 10 C-6.66785852 8.79371992 -4.50357861 7.8345262 -2 7 C-0.77030122 3.48809191 -0.77030122 3.48809191 0 0 Z " fill="#F0900D" transform="translate(565,21)"/>
<path d="M0 0 C1.41055664 -0.00193359 1.41055664 -0.00193359 2.84960938 -0.00390625 C3.82091797 -0.00003906 4.79222656 0.00382812 5.79296875 0.0078125 C6.75267578 0.00394531 7.71238281 0.00007813 8.70117188 -0.00390625 C14.22142926 0.00362994 19.51997249 0.31858465 24.98046875 1.1328125 C24.98046875 1.4628125 24.98046875 1.7928125 24.98046875 2.1328125 C18.54512475 2.95268444 12.27698605 3.28726299 5.79296875 3.2578125 C4.92994141 3.26167969 4.06691406 3.26554687 3.17773438 3.26953125 C-1.33541686 3.26262513 -5.57838754 3.0486621 -10.01953125 2.1328125 C-10.01953125 1.8028125 -10.01953125 1.4728125 -10.01953125 1.1328125 C-6.62203264 0.36870729 -3.48002578 0.00464756 0 0 Z " fill="#22282C" transform="translate(117.01953125,384.8671875)"/>
<path d="M0 0 C0.125 6.75 0.125 6.75 -1 9 C-1.99 8.67 -2.98 8.34 -4 8 C-4 7.34 -4 6.68 -4 6 C-6.64 5.34 -9.28 4.68 -12 4 C-10.66666667 3.33333333 -9.33333333 2.66666667 -8 2 C-7.34 1.62875 -6.68 1.2575 -6 0.875 C-4 0 -4 0 0 0 Z " fill="#F19609" transform="translate(531,62)"/>
<path d="M0 0 C2 1 2 1 3 2 C3 3.32 3 4.64 3 6 C4.4166747 7.7511573 4.4166747 7.7511573 6 9 C1.00724943 7.72278474 -1.57611908 5.82669043 -5 2 C-2.625 0.9375 -2.625 0.9375 0 0 Z " fill="#0A1014" transform="translate(299,375)"/>
<path d="M0 0 C0.33 0 0.66 0 1 0 C0.67 6.27 0.34 12.54 0 19 C-3 16 -3 16 -3.375 12.875 C-2.92821648 8.25823697 -1.6433183 4.31371054 0 0 Z " fill="#ED7F0F" transform="translate(24,323)"/>
<path d="M0 0 C2.64389311 1.12165162 4.15345436 2.76141376 6.0625 4.875 C6.3925 4.215 6.7225 3.555 7.0625 2.875 C7.7225 3.205 8.3825 3.535 9.0625 3.875 C8.0725 6.515 7.0825 9.155 6.0625 11.875 C4.0625 7.875 4.0625 7.875 3.375 5.75 C1.29644415 2.7806345 -1.53068726 2.6320695 -4.9375 1.875 C-1.9375 -0.125 -1.9375 -0.125 0 0 Z " fill="#EE8309" transform="translate(450.9375,151.125)"/>
<path d="M0 0 C0.33 0.66 0.66 1.32 1 2 C0.01 2.495 0.01 2.495 -1 3 C-1 3.99 -1 4.98 -1 6 C-7.75 5.25 -7.75 5.25 -10 3 C-5.05 1.515 -5.05 1.515 0 0 Z " fill="#F1920D" transform="translate(576,70)"/>
<path d="M0 0 C0.66 0 1.32 0 2 0 C2.66 3.3 3.32 6.6 4 10 C2 10 2 10 0.3125 8.9375 C-1 7 -1 7 -0.6875 3.3125 C-0.460625 2.219375 -0.23375 1.12625 0 0 Z " fill="#F1961E" transform="translate(597,40)"/>
<path d="M0 0 C1.42944945 2.35438733 2.08661261 3.48032433 1.625 6.25 C1.41875 6.8275 1.2125 7.405 1 8 C-0.32 6.35 -1.64 4.7 -3 3 C-2.01 2.01 -1.02 1.02 0 0 Z " fill="#F29F01" transform="translate(495,100)"/>
<path d="M0 0 C1.1875 1.5625 1.1875 1.5625 2 4 C0.625 7.75 0.625 7.75 -1 11 C-1.33 11 -1.66 11 -2 11 C-1.85892253 9.54119891 -1.71197585 8.08296449 -1.5625 6.625 C-1.48128906 5.81289062 -1.40007812 5.00078125 -1.31640625 4.1640625 C-1 2 -1 2 0 0 Z " fill="#090F13" transform="translate(253,249)"/>
<path d="M0 0 C0.66 0.33 1.32 0.66 2 1 C-0.31 3.31 -2.62 5.62 -5 8 C-5.33 6.68 -5.66 5.36 -6 4 C-5.34 3.34 -4.68 2.68 -4 2 C-3.34 2 -2.68 2 -2 2 C-1.34 1.34 -0.68 0.68 0 0 Z " fill="#EE8103" transform="translate(496,234)"/>
<path d="M0 0 C1.10844919 3.32534757 0.84454356 5.62182575 0 9 C-0.99 8.67 -1.98 8.34 -3 8 C-2.74438677 5.6568787 -2.40729228 3.32156597 -2 1 C-1.34 0.67 -0.68 0.34 0 0 Z " fill="#141E25" transform="translate(252,257)"/>
<path d="M0 0 C5.75 1.75 5.75 1.75 8 4 C5.36 3.67 2.72 3.34 0 3 C0 2.01 0 1.02 0 0 Z " fill="#1D2227" transform="translate(191,184)"/>
</svg>
