<?xml version="1.0" encoding="UTF-8"?>
<svg version="1.1" xmlns="http://www.w3.org/2000/svg" width="1024" height="1024">
<path d="M0 0 C337.92 0 675.84 0 1024 0 C1024 337.92 1024 675.84 1024 1024 C686.08 1024 348.16 1024 0 1024 C0 686.08 0 348.16 0 0 Z " fill="#0095E2" transform="translate(0,0)"/>
<path d="M0 0 C23.43 0 46.86 0 71 0 C71 43.56 71 87.12 71 132 C100.37 132 129.74 132 160 132 C159.67 88.44 159.34 44.88 159 0 C182.76 0 206.52 0 231 0 C231 112.53 231 225.06 231 341 C207.24 341 183.48 341 159 341 C159.495 270.215 159.495 270.215 160 198 C130.63 198 101.26 198 71 198 C71 245.19 71 292.38 71 341 C47.57 341 24.14 341 0 341 C0 228.47 0 115.94 0 0 Z " fill="#F9B90D" transform="translate(675,318)"/>
<path d="M0 0 C20.34809057 17.33925589 35.34140533 42.79030346 38.08203125 69.6484375 C38.08203125 75.9184375 38.08203125 82.1884375 38.08203125 88.6484375 C14.98203125 88.6484375 -8.11796875 88.6484375 -31.91796875 88.6484375 C-32.57796875 83.6984375 -33.23796875 78.7484375 -33.91796875 73.6484375 C-37.85858422 62.16435814 -44.13200282 51.3024636 -55.21875 45.4296875 C-65.3913776 40.7679269 -77.967627 39.44573374 -88.84765625 42.625 C-101.12666051 47.24735033 -108.86480155 53.92587739 -114.91796875 65.6484375 C-117.72476836 72.41076551 -119.03605729 79.08894495 -119.05841064 86.42106628 C-119.06412079 87.54932831 -119.06983093 88.67759033 -119.07571411 89.84004211 C-119.07683197 91.06353867 -119.07794983 92.28703522 -119.07910156 93.54760742 C-119.08406647 94.84754639 -119.08903137 96.14748535 -119.09414673 97.48681641 C-119.10721871 101.04287092 -119.11370564 104.59890661 -119.11815739 108.15498137 C-119.12109692 110.38130616 -119.12520339 112.6076259 -119.12966156 114.83394814 C-119.14332364 121.81302718 -119.15299624 128.79209457 -119.15686345 135.77118605 C-119.16133927 143.802432 -119.17887037 151.83350735 -119.20786405 159.86470145 C-119.22954789 166.08915015 -119.23957132 172.31355109 -119.24090457 178.53803712 C-119.24194794 182.24787461 -119.24775497 185.95755145 -119.26572418 189.66734886 C-119.28541246 193.81243455 -119.28088933 197.95716745 -119.27441406 202.10229492 C-119.28362885 203.31567032 -119.29284363 204.52904572 -119.30233765 205.77919006 C-119.23846795 218.88033224 -115.82476708 232.4070515 -106.91796875 242.4609375 C-95.72580335 252.69736743 -82.56820767 254.2393188 -68.14794922 253.78027344 C-58.29774205 253.19793143 -48.90089005 248.14109716 -42.16796875 241.0234375 C-33.80933091 230.56038966 -31.88855962 220.01609643 -28.91796875 206.6484375 C-5.81796875 206.6484375 17.28203125 206.6484375 41.08203125 206.6484375 C39.9103627 224.22346576 39.9103627 224.22346576 38.01953125 230.9609375 C37.69625854 232.14369263 37.69625854 232.14369263 37.36645508 233.3503418 C28.70061663 263.46360619 9.63498761 292.03827667 -17.91796875 307.6484375 C-44.73012304 322.11271179 -79.73593351 323.75828248 -108.73046875 315.3359375 C-124.84301184 310.38666723 -138.73812228 303.18143723 -151.91796875 292.6484375 C-152.70042969 292.03355469 -153.48289062 291.41867187 -154.2890625 290.78515625 C-177.02876848 271.85566838 -189.45945616 241.54656414 -192.6428299 212.80841827 C-193.51954703 202.73928688 -193.35094705 192.59835004 -193.32094526 182.49986982 C-193.3131899 179.05619147 -193.32043684 175.61253342 -193.32510376 172.16885376 C-193.3305148 166.39507657 -193.32349227 160.62141566 -193.30908203 154.84765625 C-193.29274895 148.22816361 -193.29806768 141.60894826 -193.31456125 134.98946226 C-193.32829197 129.24269356 -193.3300404 123.49600701 -193.32224524 117.74922717 C-193.31763355 114.3445455 -193.31675968 110.93999299 -193.32685471 107.53532028 C-193.36447435 89.04278275 -193.06408193 70.79192496 -186.85546875 53.1484375 C-186.55801758 52.28661865 -186.26056641 51.4247998 -185.95410156 50.53686523 C-175.50609644 21.49724491 -155.91476149 -1.76102783 -127.91796875 -15.3515625 C-87.27278171 -33.64392689 -34.55868719 -28.71631665 0 0 Z " fill="#FAB90D" transform="translate(598.91796875,341.3515625)"/>
<path d="M0 0 C17.26515382 14.56131243 28.63098634 34.29895374 33.6875 56.125 C32.09635417 57.04296875 30.50520833 57.9609375 28.9140625 58.87890625 C27.8737085 59.47912598 26.83335449 60.0793457 25.76147461 60.69775391 C23.43942574 62.03736587 21.11733117 63.37689825 18.79516602 64.71630859 C13.28224052 67.8962763 7.76966038 71.07683152 2.25946045 74.26152039 C0.50627691 75.27475583 -1.24708008 76.28769049 -3.00048828 77.30053711 C-5.19842246 78.57028855 -7.39603032 79.84060508 -9.59326172 81.11157227 C-12.49651141 82.78830181 -15.4032998 84.45862003 -18.3125 86.125 C-19.19405762 86.63256836 -20.07561523 87.14013672 -20.98388672 87.66308594 C-21.79229004 88.12231445 -22.60069336 88.58154297 -23.43359375 89.0546875 C-24.13798584 89.45671387 -24.84237793 89.85874023 -25.56811523 90.27294922 C-27.3125 91.125 -27.3125 91.125 -29.3125 91.125 C-29.45945312 90.10921875 -29.60640625 89.0934375 -29.7578125 88.046875 C-31.99888157 73.81409011 -36.75485641 61.95559505 -48.21484375 52.56640625 C-58.53073111 45.45709328 -71.21134045 44.94113148 -83.3125 46.125 C-94.36752133 48.19343422 -104.63475214 53.00459265 -111.78515625 61.87109375 C-119.5409832 73.31639337 -121.77079836 86.38952451 -121.71655273 99.95166016 C-121.72684761 101.78360428 -121.72684761 101.78360428 -121.73735046 103.65255737 C-121.75239639 106.96719154 -121.75414473 110.28125747 -121.74840808 113.59588289 C-121.74528886 116.38334545 -121.75143931 119.17075868 -121.75744683 121.95821416 C-121.77143798 128.5485202 -121.76997869 135.13869649 -121.75854492 141.72900391 C-121.74709403 148.47732893 -121.76110041 155.2252551 -121.7879414 161.97352755 C-121.81026792 167.810124 -121.81669734 173.64659684 -121.81086498 179.48323286 C-121.80753126 182.9501071 -121.80966505 186.41672656 -121.82711601 189.883564 C-122.20398486 221.0374715 -122.20398486 221.0374715 -108.125 248 C-99.7761774 255.71942134 -88.06182983 258.51469351 -77 258.4375 C-76.15767822 258.43186035 -75.31535645 258.4262207 -74.44750977 258.42041016 C-61.73284678 258.17213931 -51.91965648 253.65184317 -42.5625 245 C-33.60045777 235.57877186 -29.49178634 222.8612925 -28.3125 210.125 C-24.03323965 211.40060918 -20.61637809 213.01416634 -16.875 215.4375 C-10.76166096 219.31440788 -4.49902753 222.89404002 1.8125 226.4375 C12.15459908 232.24812672 22.43611469 238.15599035 32.6875 244.125 C30.13259891 265.68197796 14.24305308 289.44942266 -2.50390625 302.8828125 C-5.04525111 304.75009389 -7.63832689 306.45318452 -10.3125 308.125 C-11.36824219 308.78628906 -12.42398438 309.44757813 -13.51171875 310.12890625 C-38.5029278 324.95753973 -74.0618048 328.6441845 -102.10644531 321.71582031 C-134.24699253 313.1080155 -162.11276502 296.50816679 -179.26025391 267.03857422 C-192.6035807 242.77291403 -194.79307463 217.76042056 -194.74840808 190.59757781 C-194.74527673 187.64850774 -194.75145191 184.69948381 -194.75744683 181.75042039 C-194.77140471 174.7788042 -194.770005 167.80731077 -194.75854492 160.83569336 C-194.74707875 153.70388703 -194.76113408 146.57245744 -194.7879414 139.44070071 C-194.81027597 133.26172607 -194.81669611 127.08286813 -194.81086498 120.9038561 C-194.80753541 117.23802449 -194.80963704 113.57243387 -194.82711601 109.90663719 C-194.98492384 73.30044434 -187.43730508 41.40986528 -161.125 14.5 C-120.3614739 -25.83374518 -46.61401499 -35.57007913 0 0 Z " fill="#FAB90C" transform="translate(350.3125,336.875)"/>
<path d="M0 0 C0.33 0 0.66 0 1 0 C1.33 40.59 1.66 81.18 2 123 C-21.76 123 -45.52 123 -70 123 C-69.505 114.09 -69.505 114.09 -69 105 C-68.67 105 -68.34 105 -68 105 C-68 110.28 -68 115.56 -68 121 C-45.56 121 -23.12 121 0 121 C0 81.07 0 41.14 0 0 Z " fill="#E0BD1C" transform="translate(904,536)"/>
<path d="M0 0 C0.33 0 0.66 0 1 0 C1 20.79 1 41.58 1 63 C0.67 63 0.34 63 0 63 C-0.28763543 56.61381143 -0.57212381 50.22748806 -0.85449219 43.84106445 C-0.95078367 41.67143631 -1.04777823 39.50183924 -1.14550781 37.33227539 C-1.2863852 34.20206613 -1.42467908 31.0717514 -1.5625 27.94140625 C-1.60624756 26.98166397 -1.64999512 26.02192169 -1.69506836 25.03309631 C-2.39412843 8.96658253 -2.39412843 8.96658253 -1 4 C-0.814375 3.2575 -0.62875 2.515 -0.4375 1.75 C-0.293125 1.1725 -0.14875 0.595 0 0 Z " fill="#028CEC" transform="translate(834,518)"/>
<path d="M0 0 C1.32 0.66 2.64 1.32 4 2 C3.43820424 5.65167245 2.47762531 8.14558818 0.5 11.25 C-2.21477961 15.90502556 -2.74527343 19.65074211 -3 25 C-3.66 25 -4.32 25 -5 25 C-5.4951472 16.58249763 -4.1526781 7.43871034 0 0 Z " fill="#0E8FDF" transform="translate(484,405)"/>
<path d="M0 0 C0.66 0 1.32 0 2 0 C5 4.38461538 5 4.38461538 5 7 C5.99 7.33 6.98 7.66 8 8 C8.144375 8.598125 8.28875 9.19625 8.4375 9.8125 C8.83714968 12.19670396 8.83714968 12.19670396 11.0625 13.875 C13 16 13 16 13.25 19.25 C13.1675 20.1575 13.085 21.065 13 22 C13.66 22 14.32 22 15 22 C15 23.98 15 25.96 15 28 C11.50241481 23.79418105 9.40441167 18.91224621 7.04882812 14.01953125 C5.44612937 10.74002051 3.82030454 7.62575216 1.74609375 4.6171875 C0 2 0 2 0 0 Z " fill="#0C8FE9" transform="translate(367,355)"/>
<path d="M0 0 C2.46800047 1.15173355 4.04783565 2.04783565 6 4 C6.66 3.67 7.32 3.34 8 3 C8.28875 3.7425 8.5775 4.485 8.875 5.25 C9.82302644 7.56739797 10.84845911 9.77917115 12 12 C13.32 11.67 14.64 11.34 16 11 C16.28875 12.134375 16.5775 13.26875 16.875 14.4375 C17.24625 15.613125 17.6175 16.78875 18 18 C18.66 18.33 19.32 18.66 20 19 C21.1875 20.875 21.1875 20.875 22 23 C21.67 23.99 21.34 24.98 21 26 C20.32517578 25.01773437 20.32517578 25.01773437 19.63671875 24.015625 C15.34275269 17.92318417 10.79701129 12.38516071 5.68237305 6.97363281 C3.55523131 4.72105109 1.72552931 2.58829396 0 0 Z " fill="#088DEE" transform="translate(599,341)"/>
<path d="M0 0 C1.98 0.66 3.96 1.32 6 2 C5.67 4.31 5.34 6.62 5 9 C3.35 9.33 1.7 9.66 0 10 C0 6.7 0 3.4 0 0 Z " fill="#FABA09" transform="translate(322,547)"/>
<path d="M0 0 C9.57 0 19.14 0 29 0 C29 0.33 29 0.66 29 1 C28.24074219 1.06058594 27.48148437 1.12117187 26.69921875 1.18359375 C25.70535156 1.26738281 24.71148437 1.35117187 23.6875 1.4375 C22.70136719 1.51871094 21.71523438 1.59992187 20.69921875 1.68359375 C17.90624401 1.91812559 17.90624401 1.91812559 15 3 C12.40930029 2.75367118 9.88163753 2.44871022 7.3125 2.0625 C6.2596582 1.91264648 6.2596582 1.91264648 5.18554688 1.75976562 C3.45613473 1.51270675 1.7279373 1.25717148 0 1 C0 0.67 0 0.34 0 0 Z " fill="#0189F8" transform="translate(262,661)"/>
<path d="M0 0 C2 4 2 4 1.625 6.25 C1.41875 6.8275 1.2125 7.405 1 8 C0.34 8 -0.32 8 -1 8 C-1.33 8.66 -1.66 9.32 -2 10 C-3.32 9.67 -4.64 9.34 -6 9 C-4.02 6.03 -2.04 3.06 0 0 Z " fill="#0B90E1" transform="translate(622,606)"/>
<path d="M0 0 C1.91789713 0.28346278 3.83429183 0.5771028 5.75 0.875 C7.35101562 1.11863281 7.35101562 1.11863281 8.984375 1.3671875 C11.67708871 1.93223882 13.63572439 2.63422914 16 4 C15.67 4.33 15.34 4.66 15 5 C13.30858344 4.91036938 11.62040398 4.75422324 9.9375 4.5625 C8.55884766 4.40974609 8.55884766 4.40974609 7.15234375 4.25390625 C6.44207031 4.17011719 5.73179687 4.08632813 5 4 C5 3.34 5 2.68 5 2 C3.35 2 1.7 2 0 2 C0 1.34 0 0.68 0 0 Z " fill="#ECBC12" transform="translate(545,318)"/>
<path d="M0 0 C2.375 0.1875 2.375 0.1875 5 1 C6.4375 3.375 6.4375 3.375 7 6 C6.01 7.485 6.01 7.485 5 9 C0 3.375 0 3.375 0 0 Z " fill="#0390EC" transform="translate(361,346)"/>
<path d="M0 0 C4.95 2.64 9.9 5.28 15 8 C13.68 8.33 12.36 8.66 11 9 C10.67 8.67 10.34 8.34 10 8 C9.34 8.66 8.68 9.32 8 10 C7.67 8.35 7.34 6.7 7 5 C4.69 4.34 2.38 3.68 0 3 C0 2.01 0 1.02 0 0 Z " fill="#EBBD15" transform="translate(337,555)"/>
<path d="M0 0 C0.99 0.33 1.98 0.66 3 1 C3.144375 1.639375 3.28875 2.27875 3.4375 2.9375 C3.623125 3.618125 3.80875 4.29875 4 5 C5.32407669 5.68486725 6.65909241 6.34870203 8 7 C10.25 9.625 10.25 9.625 12 12 C11.67 12.66 11.34 13.32 11 14 C9.72599623 12.75323147 8.45593346 11.5024352 7.1875 10.25 C6.47980469 9.55390625 5.77210938 8.8578125 5.04296875 8.140625 C0 2.85659656 0 2.85659656 0 0 Z " fill="#F1C10E" transform="translate(179,614)"/>
<path d="M0 0 C0 1.65 0 3.3 0 5 C-0.99 5.495 -0.99 5.495 -2 6 C-2 5.34 -2 4.68 -2 4 C-2.66 4 -3.32 4 -4 4 C-4 4.66 -4 5.32 -4 6 C-4.99 6.33 -5.98 6.66 -7 7 C-7.66 6.34 -8.32 5.68 -9 5 C-7.68921847 4.16396622 -6.37632511 3.3312426 -5.0625 2.5 C-3.96615234 1.80390625 -3.96615234 1.80390625 -2.84765625 1.09375 C-1 0 -1 0 0 0 Z " fill="#0A90E4" transform="translate(255,386)"/>
<path d="M0 0 C0.33 0.99 0.66 1.98 1 3 C1.66 3.33 2.32 3.66 3 4 C2.67 4.66 2.34 5.32 2 6 C2.5775 6.103125 3.155 6.20625 3.75 6.3125 C6.32049158 7.09792798 7.93657284 8.30504197 10 10 C5.48292068 9.4685789 2.61312423 7.70984317 -1 5 C-1.33 4.34 -1.66 3.68 -2 3 C-1.34 2.01 -0.68 1.02 0 0 Z " fill="#0B8BE7" transform="translate(245,582)"/>
<path d="M0 0 C-0.66 1.32 -1.32 2.64 -2 4 C-2.99 4 -3.98 4 -5 4 C-5.66 5.32 -6.32 6.64 -7 8 C-7.99 8 -8.98 8 -10 8 C-10 7.01 -10 6.02 -10 5 C-8.3203125 3.61328125 -8.3203125 3.61328125 -6.125 2.3125 C-5.40570312 1.87550781 -4.68640625 1.43851563 -3.9453125 0.98828125 C-2 0 -2 0 0 0 Z " fill="#EDBB13" transform="translate(553,587)"/>
<path d="M0 0 C1.65 0 3.3 0 5 0 C0.98745115 3.51098025 -3.20983041 5.76537994 -8 8 C-7.34 6.02 -6.68 4.04 -6 2 C-5.67 2.66 -5.34 3.32 -5 4 C-3.01508358 3.73323796 -3.01508358 3.73323796 -1 3 C-0.67 2.01 -0.34 1.02 0 0 Z " fill="#EFBF0F" transform="translate(336,417)"/>
<path d="M0 0 C0.66 0 1.32 0 2 0 C2 0.66 2 1.32 2 2 C4.97 2.495 4.97 2.495 8 3 C7.67 4.65 7.34 6.3 7 8 C1.125 3.375 1.125 3.375 0 0 Z " fill="#E4BA19" transform="translate(437,623)"/>
<path d="M0 0 C1.66611905 -0.042721 3.33382885 -0.04063832 5 0 C5.33 0.33 5.66 0.66 6 1 C7.99958364 1.04080783 10.00045254 1.04254356 12 1 C12 1.99 12 2.98 12 4 C8.37 3.67 4.74 3.34 1 3 C0.67 2.01 0.34 1.02 0 0 Z " fill="#DEBC1D" transform="translate(498,656)"/>
<path d="M0 0 C3.96 1.98 3.96 1.98 8 4 C8 5.65 8 7.3 8 9 C7.34 8.01 6.68 7.02 6 6 C3.43717258 5.27034634 3.43717258 5.27034634 1 5 C0.67 3.35 0.34 1.7 0 0 Z " fill="#EDC113" transform="translate(375,577)"/>
<path d="M0 0 C0.33 0 0.66 0 1 0 C2.25 7.625 2.25 7.625 0 11 C-0.99 10.67 -1.98 10.34 -3 10 C-2.01 6.7 -1.02 3.4 0 0 Z " fill="#1493D8" transform="translate(157,563)"/>
<path d="M0 0 C3.21043882 1.38188453 5.04936365 2.92421903 7.25 5.625 C8.03117188 6.57246094 8.03117188 6.57246094 8.828125 7.5390625 C9.40820312 8.26222656 9.40820312 8.26222656 10 9 C8.68 9 7.36 9 6 9 C6 8.01 6 7.02 6 6 C5.34 6 4.68 6 4 6 C4 5.34 4 4.68 4 4 C2.68 3.34 1.36 2.68 0 2 C0 1.34 0 0.68 0 0 Z " fill="#F0BD11" transform="translate(598,342)"/>
<path d="M0 0 C-3.96 1.98 -7.92 3.96 -12 6 C-11.67 5.01 -11.34 4.02 -11 3 C-10.34 3 -9.68 3 -9 3 C-9 2.34 -9 1.68 -9 1 C-3.375 -1.125 -3.375 -1.125 0 0 Z " fill="#EABD14" transform="translate(584,647)"/>
<path d="M0 0 C0.99 0 1.98 0 3 0 C2.38722388 2.96175123 1.74627478 4.38058783 0 7 C-0.66 7 -1.32 7 -2 7 C-2 7.66 -2 8.32 -2 9 C-2.66 8.67 -3.32 8.34 -4 8 C-2.68 5.36 -1.36 2.72 0 0 Z " fill="#148FDB" transform="translate(375,602)"/>
<path d="M0 0 C0.33 0 0.66 0 1 0 C1.28571429 7.42857143 1.28571429 7.42857143 -1 11 C-1 9.68 -1 8.36 -1 7 C-1.99 7 -2.98 7 -4 7 C-3.34 5.68 -2.68 4.36 -2 3 C-1.34 3 -0.68 3 0 3 C0 2.01 0 1.02 0 0 Z " fill="#048FEB" transform="translate(407,408)"/>
<path d="M0 0 C0.66 0.33 1.32 0.66 2 1 C1.67 1.99 1.34 2.98 1 4 C0.34 4 -0.32 4 -1 4 C-1.2165625 5.175625 -1.2165625 5.175625 -1.4375 6.375 C-2 9 -2 9 -3 11 C-3.66 11 -4.32 11 -5 11 C-3.77472971 6.94718288 -2.30119506 3.55639236 0 0 Z " fill="#138EE0" transform="translate(237,400)"/>
<path d="M0 0 C4.55015893 1.51671964 6.50057264 5.16891053 9 9 C8.67 9.66 8.34 10.32 8 11 C6.66072279 9.54712339 5.32873153 8.08752741 4 6.625 C3.2575 5.81289063 2.515 5.00078125 1.75 4.1640625 C0 2 0 2 0 0 Z " fill="#0F8EE8" transform="translate(305,393)"/>
<path d="M0 0 C-0.56371414 3.26954202 -1.49962266 4.82575883 -4 7 C-4.99 6.67 -5.98 6.34 -7 6 C-6.67 5.34 -6.34 4.68 -6 4 C-5.34 4 -4.68 4 -4 4 C-4.33 3.01 -4.66 2.02 -5 1 C-2 0 -2 0 0 0 Z " fill="#0E90E1" transform="translate(191,348)"/>
<path d="M0 0 C0.66 0.99 1.32 1.98 2 3 C0.71211992 3.53012738 -0.58046678 4.0488329 -1.875 4.5625 C-2.95394531 4.99755859 -2.95394531 4.99755859 -4.0546875 5.44140625 C-6 6 -6 6 -8 5 C-4.04 2.525 -4.04 2.525 0 0 Z M-10 6 C-8 7 -8 7 -8 7 Z " fill="#EFBE12" transform="translate(467,328)"/>
<path d="M0 0 C0.99 0.33 1.98 0.66 3 1 C3.33 5.62 3.66 10.24 4 15 C2.22413995 11.4482799 1.51372154 9.08232923 0.875 5.25 C0.70742188 4.26515625 0.53984375 3.2803125 0.3671875 2.265625 C0.24601563 1.51796875 0.12484375 0.7703125 0 0 Z " fill="#0789EF" transform="translate(633,393)"/>
<path d="M0 0 C4.95 0.33 9.9 0.66 15 1 C15 1.33 15 1.66 15 2 C7.08 2.495 7.08 2.495 -1 3 C-0.67 2.01 -0.34 1.02 0 0 Z " fill="#E9BD13" transform="translate(283,658)"/>
<path d="M0 0 C3.5786304 1.65167557 6.74820188 3.78286492 10 6 C9.67 6.66 9.34 7.32 9 8 C7 8 7 8 5.0625 6.125 C4.381875 5.42375 3.70125 4.7225 3 4 C2.01 3.34 1.02 2.68 0 2 C0 1.34 0 0.68 0 0 Z " fill="#118EE6" transform="translate(449,636)"/>
<path d="M0 0 C0.66 0.66 1.32 1.32 2 2 C-0.97 6.95 -0.97 6.95 -4 12 C-5 9 -5 9 -4.00390625 6.73828125 C-3.52824219 5.93777344 -3.05257812 5.13726563 -2.5625 4.3125 C-2.08941406 3.50425781 -1.61632812 2.69601562 -1.12890625 1.86328125 C-0.75636719 1.24839844 -0.38382813 0.63351562 0 0 Z " fill="#E6BE15" transform="translate(623,600)"/>
<path d="M0 0 C0.96070434 2.88211302 1.10581883 4.69850044 1.0625 7.6875 C1.05347656 8.49574219 1.04445312 9.30398438 1.03515625 10.13671875 C1.02355469 10.75160156 1.01195312 11.36648438 1 12 C0.34 11.67 -0.32 11.34 -1 11 C-2.36817102 4.95724466 -2.36817102 4.95724466 -1.0625 1.5625 C-0.711875 1.046875 -0.36125 0.53125 0 0 Z " fill="#138FDC" transform="translate(231,414)"/>
<path d="M0 0 C2.97903734 2.97903734 4 5.80285329 4 10 C3.01 9.67 2.02 9.34 1 9 C-0.25 5.5625 -0.25 5.5625 -1 2 C-0.67 1.34 -0.34 0.68 0 0 Z " fill="#E9BC14" transform="translate(627,380)"/>
<path d="M0 0 C4.2742558 1.5830577 6.26531794 4.50568404 9 8 C5.08158173 6.69386058 2.67359191 5.16870152 0 2 C0 1.34 0 0.68 0 0 Z " fill="#EDBC14" transform="translate(350,338)"/>
<path d="M0 0 C1.32 0.33 2.64 0.66 4 1 C2.625 3 2.625 3 1 5 C0.34 5 -0.32 5 -1 5 C-1.33 5.66 -1.66 6.32 -2 7 C-2.33 6.01 -2.66 5.02 -3 4 C-1.5625 1.8125 -1.5625 1.8125 0 0 Z " fill="#0E92DC" transform="translate(367,617)"/>
<path d="M0 0 C1.85776765 3.13498292 2.20140476 5.37471432 2 9 C1.01 8.34 0.02 7.68 -1 7 C-1 6.34 -1 5.68 -1 5 C-1.66 4.67 -2.32 4.34 -3 4 C-2.67 3.01 -2.34 2.02 -2 1 C-1.34 0.67 -0.68 0.34 0 0 Z " fill="#0B97DD" transform="translate(405,415)"/>
<path d="M0 0 C-2 3 -2 3 -5.125 3.6875 C-6.07375 3.790625 -7.0225 3.89375 -8 4 C-8.33 3.34 -8.66 2.68 -9 2 C-5.86501708 0.14223235 -3.62528568 -0.20140476 0 0 Z " fill="#ECB816" transform="translate(269,380)"/>
<path d="M0 0 C4.38889325 0.66498383 7.9811485 2.18757677 12 4 C9.50935112 4.68707555 7.62113708 5 5 5 C3.4375 3.625 3.4375 3.625 2 2 C1.34 1.34 0.68 0.68 0 0 Z " fill="#138EE3" transform="translate(218,648)"/>
<path d="M0 0 C3.95820859 0.56545837 6.6659053 1.80902348 10 4 C9.01 4.66 8.02 5.32 7 6 C6.67 5.34 6.34 4.68 6 4 C3.47266765 3.34444881 3.47266765 3.34444881 1 3 C0.67 2.01 0.34 1.02 0 0 Z " fill="#068BEF" transform="translate(537,384)"/>
<path d="M0 0 C7.75 0.75 7.75 0.75 10 3 C4.25 4.125 4.25 4.125 2 3 C2 2.34 2 1.68 2 1 C1.34 0.67 0.68 0.34 0 0 Z " fill="#058EEF" transform="translate(238,656)"/>
<path d="M0 0 C-0.75 1.9375 -0.75 1.9375 -2 4 C-4.125 4.75 -4.125 4.75 -6 5 C-6 4.01 -6 3.02 -6 2 C-3 0 -3 0 0 0 Z " fill="#EBBB15" transform="translate(353,633)"/>
<path d="M0 0 C3 1 3 1 5 2 C4.67 3.65 4.34 5.3 4 7 C3.34 7 2.68 7 2 7 C1.34 4.69 0.68 2.38 0 0 Z " fill="#F1BE10" transform="translate(410,574)"/>
<path d="M0 0 C2.31 0.33 4.62 0.66 7 1 C7 1.99 7 2.98 7 4 C2.25 3.125 2.25 3.125 0 2 C0 1.34 0 0.68 0 0 Z " fill="#0A8FE8" transform="translate(362,568)"/>
<path d="M0 0 C2.35953094 2.35953094 2.49141413 3.77895617 3 7 C2.01 7 1.02 7 0 7 C-0.66 5.35 -1.32 3.7 -2 2 C-1.34 2 -0.68 2 0 2 C0 1.34 0 0.68 0 0 Z " fill="#1A93D7" transform="translate(316,407)"/>
<path d="M0 0 C-1.62339805 1.70884005 -3.29319053 3.37446717 -5 5 C-5.66 5 -6.32 5 -7 5 C-7 3.35 -7 1.7 -7 0 C-2.25 -1.125 -2.25 -1.125 0 0 Z " fill="#0C8FE7" transform="translate(452,338)"/>
<path d="M0 0 C2.31 0.33 4.62 0.66 7 1 C7 1.66 7 2.32 7 3 C7.66 3.66 8.32 4.32 9 5 C6.03 4.505 6.03 4.505 3 4 C2.67 3.01 2.34 2.02 2 1 C1.34 0.67 0.68 0.34 0 0 Z " fill="#038DEF" transform="translate(567,321)"/>
<path d="M0 0 C1.98 0.66 3.96 1.32 6 2 C5.67 2.66 5.34 3.32 5 4 C2.4375 4.625 2.4375 4.625 0 5 C0 3.35 0 1.7 0 0 Z " fill="#E2C21E" transform="translate(322,547)"/>
<path d="M0 0 C0.66 0.33 1.32 0.66 2 1 C1.45276317 4.37462715 0.9451 6.08235 -1 9 C-2.25541557 5.23375329 -1.37061958 3.62811066 0 0 Z " fill="#EBBB15" transform="translate(412,395)"/>
<path d="M0 0 C2.125 0.375 2.125 0.375 4 1 C4.33 2.65 4.66 4.3 5 6 C1.535 4.02 1.535 4.02 -2 2 C-1.34 1.34 -0.68 0.68 0 0 Z " fill="#1294E0" transform="translate(342,329)"/>
<path d="M0 0 C0.99 0.99 1.98 1.98 3 3 C1 5 1 5 -0.9453125 5.1953125 C-2.96354167 5.13020833 -4.98177083 5.06510417 -7 5 C-7 4.67 -7 4.34 -7 4 C-5.02 3.67 -3.04 3.34 -1 3 C-0.67 2.01 -0.34 1.02 0 0 Z " fill="#DCB823" transform="translate(270,656)"/>
<path d="M0 0 C0.99 0.33 1.98 0.66 3 1 C2.67 1.66 2.34 2.32 2 3 C1.01 3.33 0.02 3.66 -1 4 C-2.68538601 5.99665314 -2.68538601 5.99665314 -4 8 C-3.50168276 4.31245243 -2.89932357 2.39509338 0 0 Z " fill="#038CF1" transform="translate(491,395)"/>
</svg>
